<svg width="390" height="69" viewBox="0 0 390 69" fill="none" xmlns="http://www.w3.org/2000/svg">
<rect x="4.12061" y="16.4058" width="1.6942" height="35.3628" rx="0.847098" fill="#8065C9"/>
<rect x="10.3325" y="16.4058" width="1.6942" height="35.3628" rx="0.847098" fill="#8065C9"/>
<rect x="16.5444" y="13.1245" width="1.6942" height="41.5604" rx="0.847098" fill="#8065C9"/>
<rect x="22.7568" y="16.4058" width="1.6942" height="35.3628" rx="0.847098" fill="#8065C9"/>
<rect x="28.9688" y="21.1448" width="1.6942" height="25.5196" rx="0.847098" fill="#8065C9"/>
<rect x="41.3931" y="23.332" width="1.6942" height="21.1448" rx="0.847098" fill="#8065C9"/>
<rect x="115.938" y="23.332" width="1.6942" height="21.1448" rx="0.847098" fill="#8065C9"/>
<rect x="53.8169" y="26.2488" width="1.6942" height="15.3117" rx="0.847098" fill="#8065C9"/>
<rect x="128.362" y="26.2488" width="1.6942" height="15.3117" rx="0.847098" fill="#8065C9"/>
<rect x="35.1807" y="21.1448" width="1.6942" height="25.5196" rx="0.847098" fill="#8065C9"/>
<rect x="47.605" y="23.332" width="1.6942" height="21.1448" rx="0.847098" fill="#8065C9"/>
<rect x="122.149" y="23.332" width="1.6942" height="21.1448" rx="0.847098" fill="#8065C9"/>
<rect x="60.0288" y="26.2488" width="1.6942" height="15.3117" rx="0.847098" fill="#8065C9"/>
<rect x="111.419" y="41.5603" width="1.6942" height="15.3117" rx="0.847098" transform="rotate(-180 111.419 41.5603)" fill="#8065C9"/>
<rect x="66.2412" y="28.0715" width="1.6942" height="11.6661" rx="0.847098" fill="#8065C9"/>
<rect x="105.208" y="39.7378" width="1.6942" height="11.6661" rx="0.847098" transform="rotate(-180 105.208 39.7378)" fill="#8065C9"/>
<rect x="72.4531" y="30.988" width="1.6942" height="5.83304" rx="0.847098" fill="#8065C9"/>
<rect x="134.574" y="30.988" width="1.6942" height="5.83304" rx="0.847098" fill="#8065C9"/>
<rect x="146.998" y="30.988" width="1.6942" height="5.83304" rx="0.847098" fill="#8065C9"/>
<rect x="153.139" y="30.988" width="1.6942" height="5.83304" rx="0.847098" fill="#8065C9"/>
<rect x="98.9956" y="36.8213" width="1.6942" height="5.83304" rx="0.847098" transform="rotate(-180 98.9956 36.8213)" fill="#8065C9"/>
<rect x="78.665" y="30.988" width="1.6942" height="5.83304" rx="0.847098" fill="#8065C9"/>
<rect x="140.786" y="30.988" width="1.6942" height="5.83304" rx="0.847098" fill="#8065C9"/>
<rect x="146.927" y="30.988" width="1.6942" height="5.83304" rx="0.847098" fill="#8065C9"/>
<rect x="153.21" y="30.988" width="1.6942" height="5.83304" rx="0.847098" fill="#8065C9"/>
<rect x="92.7837" y="36.8213" width="1.6942" height="5.83304" rx="0.847098" transform="rotate(-180 92.7837 36.8213)" fill="#8065C9"/>
<rect x="84.8774" y="30.988" width="1.6942" height="5.83304" rx="0.847098" fill="#8065C9"/>
<rect x="385.879" y="42.6543" width="1.6942" height="16.77" rx="0.847101" transform="rotate(-180 385.879 42.6543)" fill="#8065C9"/>
<rect x="379.667" y="37.915" width="1.6942" height="7.29131" rx="0.8471" transform="rotate(-180 379.667 37.915)" fill="#8065C9"/>
<rect x="373.456" y="38.644" width="1.6942" height="8.74957" rx="0.8471" transform="rotate(-180 373.456 38.644)" fill="#8065C9"/>
<rect x="367.243" y="37.915" width="1.6942" height="7.29131" rx="0.8471" transform="rotate(-180 367.243 37.915)" fill="#8065C9"/>
<rect x="361.031" y="36.8213" width="1.6942" height="5.46848" rx="0.847099" transform="rotate(-180 361.031 36.8213)" fill="#8065C9"/>
<rect x="348.607" y="39.0083" width="1.6942" height="9.84326" rx="0.847099" transform="rotate(-180 348.607 39.0083)" fill="#8065C9"/>
<rect x="274.062" y="51.7683" width="1.6942" height="34.9983" rx="0.8471" transform="rotate(-180 274.062 51.7683)" fill="#8065C9"/>
<rect x="336.183" y="41.9248" width="1.6942" height="15.3117" rx="0.847098" transform="rotate(-180 336.183 41.9248)" fill="#8065C9"/>
<rect x="261.638" y="41.9248" width="1.6942" height="15.3117" rx="0.847098" transform="rotate(-180 261.638 41.9248)" fill="#8065C9"/>
<rect x="354.819" y="40.1021" width="1.6942" height="12.0307" rx="0.8471" transform="rotate(-180 354.819 40.1021)" fill="#8065C9"/>
<rect x="342.395" y="39.0083" width="1.6942" height="9.84326" rx="0.847099" transform="rotate(-180 342.395 39.0083)" fill="#8065C9"/>
<rect x="267.851" y="51.7683" width="1.6942" height="34.9983" rx="0.8471" transform="rotate(-180 267.851 51.7683)" fill="#8065C9"/>
<rect x="329.971" y="41.9248" width="1.6942" height="15.3117" rx="0.847098" transform="rotate(-180 329.971 41.9248)" fill="#8065C9"/>
<rect x="278.581" y="21.8743" width="1.6942" height="24.7904" rx="0.8471" fill="#8065C9"/>
<rect x="323.759" y="40.1021" width="1.6942" height="11.6661" rx="0.847098" transform="rotate(-180 323.759 40.1021)" fill="#8065C9"/>
<rect x="284.792" y="28.436" width="1.6942" height="11.6661" rx="0.847098" fill="#8065C9"/>
<rect x="317.547" y="37.1858" width="1.6942" height="5.83304" rx="0.847098" transform="rotate(-180 317.547 37.1858)" fill="#8065C9"/>
<rect x="255.426" y="37.1858" width="1.6942" height="5.83304" rx="0.847098" transform="rotate(-180 255.426 37.1858)" fill="#8065C9"/>
<rect x="243.002" y="37.1858" width="1.6942" height="5.83304" rx="0.847098" transform="rotate(-180 243.002 37.1858)" fill="#8065C9"/>
<rect x="291.004" y="31.3525" width="1.6942" height="5.83304" rx="0.847098" fill="#8065C9"/>
<rect x="311.335" y="37.1858" width="1.6942" height="5.83304" rx="0.847098" transform="rotate(-180 311.335 37.1858)" fill="#8065C9"/>
<rect x="249.214" y="37.1858" width="1.6942" height="5.83304" rx="0.847098" transform="rotate(-180 249.214 37.1858)" fill="#8065C9"/>
<rect x="236.863" y="37.1858" width="1.6942" height="5.83304" rx="0.847098" transform="rotate(-180 236.863 37.1858)" fill="#8065C9"/>
<rect x="297.216" y="31.3525" width="1.6942" height="5.83304" rx="0.847098" fill="#8065C9"/>
<rect x="305.123" y="37.1858" width="1.6942" height="5.83304" rx="0.847098" transform="rotate(-180 305.123 37.1858)" fill="#8065C9"/>
</svg>
