 <svg width="103" height="103" viewBox="0 0 103 103" fill="none" xmlns="http://www.w3.org/2000/svg">
            <path
              d="M72.0549 86.5235H30.0521C22.0745 86.5235 15.5835 80.0336 15.5835 72.0549V30.0521C15.5835 22.0734 22.0745 15.5835 30.0521 15.5835H72.0549C80.0326 15.5835 86.5235 22.0734 86.5235 30.0521V72.0549C86.5235 80.0336 80.0326 86.5235 72.0549 86.5235ZM30.0521 19.5412C27.2653 19.5433 24.5933 20.6515 22.6229 22.6223C20.6525 24.593 19.5448 27.2653 19.5432 30.0521V72.0549C19.5456 74.8412 20.6536 77.5127 22.6239 79.4828C24.5942 81.4529 27.2658 82.5606 30.0521 82.5628H72.0549C74.8412 82.5606 77.5128 81.4529 79.4831 79.4828C81.4534 77.5127 82.5614 74.8412 82.5638 72.0549V30.0521C82.5614 27.2658 81.4534 24.5944 79.4831 22.6242C77.5128 20.6541 74.8412 19.5464 72.0549 19.5442L30.0521 19.5412Z"
              fill="#2D224C"
            />
            <path
              d="M72.0549 87.7672H30.0521C21.3883 87.7672 14.3398 80.7218 14.3398 72.0549V30.0521C14.3398 21.3883 21.3852 14.3398 30.0521 14.3398H72.0549C80.7187 14.3398 87.7672 21.3852 87.7672 30.0521V72.0549C87.7672 80.7187 80.7187 87.7672 72.0549 87.7672ZM30.0521 16.8262C26.5456 16.8302 23.1839 18.225 20.7044 20.7044C18.225 23.1839 16.8302 26.5456 16.8262 30.0521V72.0549C16.8302 75.5614 18.225 78.9232 20.7044 81.4026C23.1839 83.8821 26.5456 85.2769 30.0521 85.2809H72.0549C75.5614 85.2769 78.9232 83.8821 81.4026 81.4026C83.8821 78.9232 85.2769 75.5614 85.2809 72.0549V30.0521C85.2769 26.5456 83.8821 23.1839 81.4026 20.7044C78.9232 18.225 75.5614 16.8302 72.0549 16.8262H30.0521ZM72.0549 83.8085H30.0521C26.9361 83.805 23.9488 82.5655 21.7457 80.362C19.5426 78.1585 18.3036 75.1709 18.3006 72.0549V30.0521C18.3041 26.9365 19.5433 23.9495 21.7464 21.7464C23.9495 19.5433 26.9365 18.3041 30.0521 18.3006H72.0549C75.1706 18.3041 78.1576 19.5433 80.3606 21.7464C82.5637 23.9495 83.803 26.9365 83.8065 30.0521V72.0549C83.803 75.1706 82.5637 78.1576 80.3606 80.3606C78.1576 82.5637 75.1706 83.803 72.0549 83.8065V83.8085ZM30.0521 20.7869C27.5957 20.7896 25.2406 21.7666 23.5036 23.5036C21.7666 25.2406 20.7896 27.5957 20.7869 30.0521V72.0549C20.7896 74.5114 21.7666 76.8665 23.5036 78.6035C25.2406 80.3404 27.5957 81.3175 30.0521 81.3202H72.0549C74.5114 81.3175 76.8665 80.3404 78.6035 78.6035C80.3404 76.8665 81.3175 74.5114 81.3202 72.0549V30.0521C81.3175 27.5957 80.3404 25.2406 78.6035 23.5036C76.8665 21.7666 74.5114 20.7896 72.0549 20.7869H30.0521Z"
              fill="#2D224C"
            />
            <path d="M58.5135 36.5787H62.2435V28.4612L56.6276 28.4551C48.6632 28.4551 44.8914 33.1918 44.8914 39.935V46.3228H38.6628V54.036H44.8914V73.6518H54.2403V54.036H60.4689L62.2384 46.3259H54.2383V41.0602C54.2383 38.9027 55.4166 36.5787 58.5135 36.5787Z" fill="#2D224C" />
          </svg>