<svg width="260" height="70" viewBox="0 0 260 70" fill="none" xmlns="http://www.w3.org/2000/svg">
<path d="M37.3898 10.2418C45.1903 10.2418 49.2332 15.1879 52.1201 23.9202L55.0083 23.0455L54.719 5.875H3.88623V8.49639L6.77571 8.78664C10.5281 9.36845 11.9734 11.6957 12.5495 17.2248C13.4188 27.7026 13.1282 46.6212 12.5495 55.6386C11.9722 61.1703 10.5293 63.7904 6.77571 64.0768L3.88623 64.6625V66.9949H36.5205V64.6625L33.0485 64.0768C29.2949 63.7878 27.8508 61.1703 27.2734 55.6386C26.9828 51.8549 26.6948 45.7413 26.6948 38.1778L33.6259 38.468C37.9595 38.468 39.9784 41.9667 40.8464 46.9062H43.4466V26.2487H40.8541C39.9848 31.1961 37.9672 34.6869 33.6336 34.6869L26.7038 34.9798C26.7038 25.0838 26.9931 15.7723 27.2824 10.2431L37.3898 10.2418Z" fill="#2D224C"/>
<path d="M156.958 22.7503C152.915 22.7503 149.74 23.6236 146.562 25.3678C146.562 16.0562 146.562 7.61544 146.853 4.70898L127.501 8.20373V9.94916L129.522 10.2407C132.12 10.8212 132.994 12.2751 133.562 15.7699C134.144 22.7542 133.852 60.0043 133.562 66.1165C138.761 67.2827 144.249 68.1548 149.739 68.1548C165.041 68.1548 174.287 58.5504 174.287 43.4169C174.287 31.4865 166.785 22.7503 156.958 22.7503ZM150.315 64.9477C149.157 64.9477 147.713 64.9477 146.843 64.6588C146.553 60.5848 146.267 43.4078 146.553 28.2807C148.285 27.6976 149.44 27.4074 150.886 27.4074C157.243 27.4074 160.709 34.9735 160.709 44.2837C160.714 55.9329 156.382 64.9516 150.315 64.9516V64.9477Z" fill="#2D224C"/>
<path d="M112.192 32.36L112.479 22.1738L93.1309 25.9575V27.7029L95.1588 27.9944C97.7615 28.286 98.9137 29.7399 99.203 33.5249C99.7804 40.5092 99.4924 52.7337 99.203 58.8446C98.9137 62.3342 97.7615 64.0796 95.1588 64.3725L93.1373 64.6653V66.9978H119.99V64.6653L116.518 64.3725C113.638 64.0861 112.776 62.3342 112.479 58.8446C111.903 53.3142 111.903 42.2585 112.192 35.2716C113.635 33.232 119.99 31.4879 125.765 35.2716L130.387 23.3374C125.478 20.4296 116.813 21.8822 112.192 32.36Z" fill="#2D224C"/>
<path d="M244.473 40.7969C236.385 37.5976 233.499 35.5606 233.499 31.7756C233.499 27.9906 236.103 25.3718 239.569 25.3718C244.764 25.3718 248.229 28.5737 250.833 36.4327L252.852 35.8509L252.557 24.5023C249.085 23.0446 244.471 22.1699 239.272 22.1699C228.588 22.1699 221.941 28.5711 221.941 36.1386C221.941 43.706 226.847 46.9066 233.787 49.2364C241.005 51.8526 243.028 53.8909 243.028 57.383C243.028 60.8752 240.428 64.0758 235.806 64.0758C230.32 64.0758 226.275 60.8765 223.1 52.1429L221.076 52.7286L221.366 65.5323C224.838 66.9862 231.184 68.1524 236.669 68.1524C247.932 68.1524 255.154 62.3291 255.154 53.3104C255.161 47.1994 251.982 43.7099 244.473 40.7969Z" fill="#2D224C"/>
<path d="M218.184 43.1266C218.184 31.195 212.405 22.1724 200.278 22.1724C185.548 22.1724 178.04 33.5235 178.04 45.4551C178.04 58.8433 187.282 68.1548 200.278 68.1574C208.364 68.1574 214.717 64.0796 217.605 60.0056L216.448 58.553C213.562 60.5874 211.253 61.7536 206.631 61.7536C196.232 61.7536 191.034 53.8946 191.328 43.1279L218.184 43.1266ZM199.122 25.0827C204.031 25.0827 204.897 33.8138 204.897 39.6344L191.323 39.926C191.61 33.2306 194.214 25.0827 199.122 25.0827Z" fill="#2D224C"/>
<path d="M71.1812 22.1724C56.7389 22.1724 48.6543 32.6488 48.6543 45.1636C48.6543 58.2602 55.8735 68.1574 70.3132 68.1574C84.7529 68.1574 92.844 57.677 92.844 45.1675C92.844 32.0683 85.6222 22.1724 71.1812 22.1724ZM70.8932 65.2432C65.1155 65.2432 62.226 56.2219 62.226 45.1584C62.226 33.8086 63.9594 25.0736 70.3132 25.0736C76.3815 25.0736 79.2671 34.0962 79.2671 45.1584C79.2671 56.5121 77.5298 65.2432 70.8932 65.2432Z" fill="#2D224C"/>
</svg>
