 <svg width="103" height="103" viewBox="0 0 103 103" fill="none" xmlns="http://www.w3.org/2000/svg">
            <path
              d="M30.6772 41.3455C31.0479 39.4167 31.392 37.4807 32.4437 35.7653C34.8412 31.8526 38.5895 30.3537 42.9128 30.2454C48.8064 30.1018 54.7034 30.1018 60.6039 30.2454C64.6055 30.3424 68.167 31.6606 70.6043 35.1292C72.1726 37.3613 72.7577 39.918 72.7975 42.5616C72.8833 48.2265 72.9231 53.8955 72.7975 59.5594C72.6954 64.1205 71.1066 68.0139 66.8355 70.3327C64.8638 71.4038 62.7001 71.8643 60.4936 71.8939C54.6735 71.9613 48.8534 72.0185 43.0332 71.8858C38.6682 71.7837 34.8749 70.3123 32.4488 66.3587C31.3971 64.6433 31.053 62.7074 30.6824 60.7786L30.6772 41.3455ZM51.793 34.2388C48.9014 34.2388 46.0087 34.1837 43.12 34.2521C38.6049 34.3542 35.8286 36.4729 35.0066 40.3612C34.8198 41.1884 34.7171 42.0323 34.7003 42.8802C34.6727 48.3531 34.5982 53.8291 34.7115 59.3011C34.8228 64.7454 37.5756 67.6575 42.828 67.8515C48.7604 68.069 54.7021 68.0557 60.6355 67.8515C65.0108 67.7065 67.6115 65.6052 68.4477 61.82C68.5968 61.1451 68.7388 60.4508 68.7418 59.7646C68.7745 53.5238 69.1165 47.2759 68.5529 41.0463C68.219 37.3562 65.747 34.9464 62.0711 34.442C58.6536 33.9764 55.2167 34.3083 51.793 34.2388V34.2388Z"
              fill="#2D224C"
            />
            <path d="M62.6654 51.1334C62.648 57.0138 57.7693 61.8475 51.7777 61.919C45.7677 61.9905 40.7818 57.0291 40.7991 50.9935C40.8165 45.059 45.881 40.0956 51.8032 40.2079C57.8786 40.3233 62.6838 45.156 62.6654 51.1334ZM58.6117 51.0803C58.6189 47.3381 55.5383 44.2728 51.7491 44.2524C47.9865 44.233 44.8599 47.3156 44.8528 51.0466C44.8456 54.7776 47.9282 57.8551 51.7154 57.8745C55.4791 57.8949 58.6056 54.8133 58.6117 51.0803V51.0803Z" fill="#2D224C" />
            <path d="M62.9626 37.3527C64.4125 37.3344 65.6398 38.5351 65.6317 39.9646C65.6235 41.336 64.4482 42.5102 63.0432 42.551C61.5974 42.5919 60.3445 41.4136 60.319 39.9881C60.2935 38.5627 61.4769 37.3711 62.9626 37.3527Z" fill="#2D224C" />
            <path
              d="M72.7791 86.5235H30.7752C22.7976 86.5235 16.3066 80.0336 16.3066 72.0549V30.0521C16.3066 22.0734 22.7976 15.5835 30.7752 15.5835H72.7791C80.7567 15.5835 87.2467 22.0734 87.2467 30.0521V72.0549C87.2467 80.0336 80.7567 86.5235 72.7791 86.5235ZM30.7752 19.5412C27.9886 19.5436 25.3168 20.6519 23.3467 22.6226C21.3765 24.5934 20.269 27.2655 20.2674 30.0521V72.0549C20.2698 74.841 21.3777 77.5123 23.3477 79.4824C25.3178 81.4525 27.9891 82.5604 30.7752 82.5628H72.7791C75.565 82.5601 78.2361 81.4521 80.2059 79.4821C82.1758 77.512 83.2835 74.8409 83.2859 72.0549V30.0521C83.2835 27.2662 82.1758 24.595 80.2059 22.625C78.2361 20.6549 75.565 19.5469 72.7791 19.5442L30.7752 19.5412Z"
              fill="#2D224C"
            />
            <path
              d="M72.7791 87.7672H30.7753C22.1115 87.7672 15.063 80.7218 15.063 72.0549V30.0521C15.063 21.3883 22.1084 14.3398 30.7753 14.3398H72.7791C81.4419 14.3398 88.4904 21.3852 88.4904 30.0521V72.0549C88.4904 80.7187 81.4419 87.7672 72.7791 87.7672ZM30.7753 16.8262C27.2688 16.8302 23.907 18.225 21.4276 20.7044C18.9481 23.1839 17.5534 26.5456 17.5493 30.0521V72.0549C17.5534 75.5614 18.9481 78.9232 21.4276 81.4026C23.907 83.8821 27.2688 85.2769 30.7753 85.2809H72.7791C80.0706 85.2809 86.004 79.3474 86.004 72.0549V30.0521C86.004 22.7596 80.0706 16.8262 72.7791 16.8262H30.7753ZM72.7791 83.8085H30.7753C27.6593 83.805 24.672 82.5655 22.4688 80.362C20.2657 78.1585 19.0267 75.1709 19.0237 72.0549V30.0521C19.0272 26.9365 20.2665 23.9495 22.4696 21.7464C24.6726 19.5433 27.6596 18.3041 30.7753 18.3006H72.7791C75.8946 18.3044 78.8813 19.5437 81.0842 21.7468C83.287 23.9498 84.5261 26.9367 84.5296 30.0521V72.0549C84.5261 75.1704 83.287 78.1572 81.0842 80.3603C78.8813 82.5633 75.8946 83.8027 72.7791 83.8065V83.8085ZM30.7753 20.7869C28.3188 20.7896 25.9637 21.7666 24.2267 23.5036C22.4898 25.2406 21.5127 27.5957 21.51 30.0521V72.0549C21.5127 74.5114 22.4898 76.8665 24.2267 78.6035C25.9637 80.3404 28.3188 81.3175 30.7753 81.3202H72.7791C75.2355 81.3175 77.5904 80.3404 79.3273 78.6034C81.0641 76.8664 82.0409 74.5113 82.0433 72.0549V30.0521C82.0409 27.5957 81.0641 25.2407 79.3273 23.5037C77.5904 21.7667 75.2355 20.7896 72.7791 20.7869H30.7753Z"
              fill="#2D224C"
            />
          </svg>