<svg width="93" height="21" viewBox="0 0 93 21" fill="none" xmlns="http://www.w3.org/2000/svg">
                          <path d="M16.3659 0H11.7868C11.7868 3.80119 10.0619 7.27003 7.06386 9.5549L5.25684 10.9258L12.2796 20.6053H18.0497L11.5814 11.6944C14.641 8.62018 16.3659 4.46588 16.3659 0Z" fill="#2D224C" />
                          <path d="M4.68183 0H0V20.6053H4.68183V0Z" fill="#2D224C" />
                          <path d="M23.8198 0H19.4049V20.6053H23.8198V0Z" fill="#2D224C" />
                          <path d="M62.5475 5.96143C60.8637 5.96143 59.262 6.48071 58.1943 7.95549V6.35608H54.0052V20.6053H58.2559V13.1276C58.2559 10.9674 59.6933 9.90801 61.4181 9.90801C63.2662 9.90801 64.334 11.0297 64.334 13.1068V20.6261H68.5436V11.549C68.5436 8.22552 65.9357 5.96143 62.5475 5.96143Z" fill="#2D224C" />
                          <path d="M37.1671 6.35608V7.27003C35.9761 6.43917 34.5387 5.96143 32.9781 5.96143C28.8712 5.96143 25.5447 9.32641 25.5447 13.4807C25.5447 17.635 28.8712 21 32.9781 21C34.5387 21 35.9761 20.5223 37.1671 19.6914V20.6053H41.3766V6.35608H37.1671ZM33.3272 17.1365C31.2122 17.1365 29.5078 15.4956 29.5078 13.4807C29.5078 11.4659 31.2122 9.82493 33.3272 9.82493C35.4422 9.82493 37.1466 11.4659 37.1466 13.4807C37.1466 15.4956 35.4422 17.1365 33.3272 17.1365Z" fill="#2D224C" />
                          <path d="M47.9066 8.20462V6.35596H43.5944V20.6052H47.9271V13.9583C47.9271 11.715 50.3296 10.5103 51.9929 10.5103C52.0134 10.5103 52.034 10.5103 52.034 10.5103V6.35596C50.3296 6.35596 48.7485 7.10373 47.9066 8.20462Z" fill="#2D224C" />
                          <path d="M81.6445 6.35608V7.27003C80.4535 6.43917 79.0161 5.96143 77.4555 5.96143C73.3487 5.96143 70.0221 9.32641 70.0221 13.4807C70.0221 17.635 73.3487 21 77.4555 21C79.0161 21 80.4535 20.5223 81.6445 19.6914V20.6053H85.8541V6.35608H81.6445ZM77.8046 17.1365C75.6896 17.1365 73.9852 15.4956 73.9852 13.4807C73.9852 11.4659 75.6896 9.82493 77.8046 9.82493C79.9196 9.82493 81.624 11.4659 81.624 13.4807C81.6445 15.4956 79.9196 17.1365 77.8046 17.1365Z" fill="#2D224C" />
                          <path d="M89.119 6.7718C89.119 6.56408 88.9753 6.43945 88.7494 6.43945H88.3593V7.51957H88.5441V7.12491H88.7494L88.9137 7.51957H89.119L88.9342 7.08337C89.0574 7.02106 89.119 6.9172 89.119 6.7718ZM88.7494 6.93797H88.5441V6.60563H88.7494C88.8726 6.60563 88.9342 6.66794 88.9342 6.7718C88.9342 6.87565 88.8932 6.93797 88.7494 6.93797Z" fill="#2D224C" />
                          <path d="M88.6878 5.98242C88.1334 5.98242 87.6816 6.4394 87.6816 7.00023C87.7022 7.56106 88.1334 8.01803 88.6878 8.01803C89.2422 8.01803 89.694 7.56106 89.694 7.00023C89.694 6.4394 89.2422 5.98242 88.6878 5.98242ZM88.6878 7.83109C88.2361 7.83109 87.887 7.4572 87.887 7.00023C87.887 6.54325 88.2566 6.16937 88.6878 6.16937C89.1396 6.16937 89.4887 6.54325 89.4887 7.00023C89.4887 7.4572 89.119 7.83109 88.6878 7.83109Z" fill="#2D224C" />
                        </svg>