<svg width="247" height="72" viewBox="0 0 247 72" fill="none" xmlns="http://www.w3.org/2000/svg">
<path d="M44.1308 8.03076H38.8882C38.8515 8.03076 38.8152 8.03803 38.7813 8.05216C38.7475 8.06628 38.7168 8.08698 38.6909 8.11306C38.6651 8.13914 38.6446 8.17009 38.6308 8.20413C38.6169 8.23816 38.6099 8.27461 38.6102 8.31137V9.63584C38.6102 9.70976 38.6395 9.78066 38.6916 9.83294C38.7437 9.88521 38.8144 9.91458 38.8882 9.91458H39.4479C39.5216 9.91458 39.5923 9.94394 39.6444 9.99622C39.6966 10.0485 39.7259 10.1194 39.7259 10.1933V22.31C39.7259 22.3839 39.6966 22.4548 39.6444 22.5071C39.5923 22.5593 39.5216 22.5887 39.4479 22.5887H38.6549C38.5812 22.5887 38.5105 22.6181 38.4584 22.6703C38.4062 22.7226 38.377 22.7935 38.377 22.8674V23.6756C38.377 23.7495 38.4062 23.8204 38.4584 23.8727C38.5105 23.925 38.5812 23.9543 38.6549 23.9543H47.0002C47.0455 23.9546 47.0902 23.9437 47.1302 23.9225C47.1702 23.9013 47.2044 23.8704 47.2297 23.8327L49.0693 21.1015C49.0904 21.0702 49.105 21.0349 49.1121 20.9978C49.1193 20.9607 49.1188 20.9226 49.1108 20.8857C49.1028 20.8487 49.0873 20.8138 49.0655 20.7831C49.0436 20.7523 49.0157 20.7264 48.9834 20.7068L48.3995 20.3569C48.3446 20.3233 48.2797 20.3099 48.216 20.3191C48.1522 20.3283 48.0938 20.3596 48.0506 20.4074L46.3509 22.2782C46.3258 22.306 46.2954 22.3285 46.2614 22.3442C46.2274 22.36 46.1906 22.3687 46.1532 22.3698L43.3024 22.4428C43.2653 22.4438 43.2283 22.4373 43.1937 22.4238C43.1591 22.4102 43.1276 22.3898 43.101 22.3638C43.0744 22.3379 43.0532 22.3068 43.0388 22.2725C43.0244 22.2382 43.0169 22.2013 43.0169 22.164V10.1914C43.0169 10.1175 43.0462 10.0466 43.0984 9.99435C43.1505 9.94207 43.2212 9.9127 43.2949 9.9127H44.1308C44.2045 9.9127 44.2752 9.88334 44.3273 9.83107C44.3795 9.77879 44.4088 9.70789 44.4088 9.63397V8.32446C44.4088 8.25037 44.3795 8.17927 44.3274 8.1267C44.2754 8.07413 44.2047 8.04435 44.1308 8.04386V8.03076Z" fill="#20105B"/>
<path d="M157.806 24.233C157.338 25.0524 155.38 28.3785 154.388 28.5787H154.336C152.451 28.5431 149.03 28.5469 148.104 28.5506C148.073 28.5509 148.042 28.5448 148.013 28.5328C147.984 28.5208 147.958 28.5032 147.936 28.4808C147.914 28.4585 147.897 28.432 147.885 28.4028C147.874 28.3737 147.868 28.3425 147.869 28.3112L147.921 15.3059C147.922 15.2439 147.947 15.1845 147.99 15.1404C148.034 15.0964 148.093 15.0712 148.155 15.0702L151.655 15.0197C151.699 15.0188 151.743 15.0304 151.78 15.0532C151.818 15.0761 151.849 15.1092 151.869 15.1488L153.341 18.0765C153.356 18.1058 153.377 18.1318 153.402 18.1528C153.427 18.1737 153.457 18.1892 153.488 18.1981C153.52 18.2071 153.553 18.2094 153.585 18.2049C153.618 18.2004 153.649 18.1891 153.677 18.1719L155.317 17.1542C155.367 17.1228 155.404 17.0738 155.42 17.0168C155.436 16.9597 155.431 16.8987 155.405 16.8455L151.354 8.79207C151.34 8.76373 151.321 8.73846 151.297 8.71777C151.274 8.69708 151.246 8.68138 151.216 8.67161C151.186 8.66184 151.154 8.6582 151.123 8.66089C151.092 8.66359 151.061 8.67257 151.033 8.68731L149.453 9.52352C149.426 9.53809 149.401 9.55798 149.381 9.58206C149.361 9.60613 149.346 9.63391 149.337 9.66381C149.328 9.69371 149.325 9.72513 149.328 9.75627C149.331 9.78741 149.34 9.81766 149.354 9.84529L150.41 11.8526C150.429 11.8887 150.438 11.9291 150.437 11.9699C150.436 12.0107 150.424 12.0505 150.403 12.0855C150.382 12.1205 150.353 12.1494 150.317 12.1696C150.282 12.1897 150.242 12.2004 150.201 12.2005H148.095C148.063 12.2005 148.032 12.1943 148.003 12.1821C147.974 12.1699 147.948 12.1521 147.926 12.1296C147.904 12.1072 147.887 12.0805 147.875 12.0513C147.863 12.022 147.857 11.9907 147.858 11.9592L147.976 5.03754C147.976 4.97567 148.002 4.91668 148.046 4.87328C148.09 4.82988 148.149 4.80556 148.211 4.80557H152.179C152.179 4.80557 154.011 4.62972 155.819 8.50585C155.842 8.55913 155.885 8.6017 155.938 8.62522C155.991 8.64875 156.051 8.65155 156.106 8.63306C156.641 8.42415 157.16 8.17786 157.66 7.896C157.713 7.86701 157.752 7.81929 157.771 7.76241C157.789 7.70552 157.786 7.64365 157.761 7.5892L155.134 1.78436C155.114 1.74371 155.084 1.7095 155.045 1.68566C155.007 1.66183 154.963 1.64935 154.918 1.64966H123.938C123.896 1.64975 123.855 1.66087 123.819 1.68189C123.783 1.70291 123.753 1.7331 123.733 1.76939L120.356 7.70892C120.335 7.74488 120.324 7.78568 120.324 7.82719C120.324 7.86871 120.335 7.90947 120.356 7.94535C120.377 7.98123 120.407 8.01096 120.443 8.03153C120.479 8.0521 120.52 8.06278 120.561 8.06249H122.225C122.261 8.06243 122.297 8.05414 122.329 8.03826C122.361 8.02237 122.39 7.99931 122.412 7.97083C122.785 7.47321 124.587 5.13482 125.397 4.7906C125.422 4.78019 125.448 4.77448 125.475 4.77377C126.861 4.72326 130.343 4.68584 131.535 4.67462C131.576 4.67424 131.617 4.68479 131.654 4.70523C131.69 4.72567 131.72 4.75527 131.741 4.79107C131.762 4.82687 131.774 4.86762 131.774 4.90923C131.775 4.95085 131.764 4.99186 131.744 5.02818L118.803 28.2663C118.782 28.3031 118.752 28.3337 118.715 28.355C118.678 28.3763 118.637 28.3877 118.595 28.3879L108.423 28.2681C108.382 28.2675 108.342 28.2564 108.307 28.2359C108.272 28.2154 108.243 28.1862 108.222 28.151C108.201 28.1159 108.19 28.076 108.189 28.0353C108.189 27.9945 108.198 27.9542 108.217 27.9183L121.992 1.99388C122.01 1.95787 122.019 1.91785 122.017 1.87758C122.015 1.83731 122.004 1.79812 121.983 1.7637C121.962 1.72928 121.932 1.70075 121.898 1.6808C121.863 1.66085 121.823 1.65014 121.783 1.64966H105.479C105.437 1.64951 105.397 1.66034 105.361 1.68105C105.325 1.70175 105.296 1.73159 105.275 1.76752L101.859 7.62287C101.838 7.65901 101.827 7.70009 101.827 7.74193C101.827 7.78377 101.838 7.82491 101.859 7.86117C101.879 7.89743 101.909 7.92753 101.946 7.94843C101.982 7.96933 102.023 7.98028 102.064 7.98018H103.758C103.795 7.97853 103.831 7.96839 103.864 7.95055C103.896 7.93271 103.924 7.90764 103.945 7.87729C104.339 7.30298 106.313 4.53993 107.734 4.63346C109.339 4.59979 112.352 4.56612 113.44 4.55302C113.481 4.55264 113.522 4.5632 113.558 4.58363C113.594 4.60407 113.624 4.63367 113.646 4.66947C113.667 4.70528 113.678 4.74602 113.679 4.78764C113.679 4.82925 113.669 4.87027 113.649 4.90659L101.548 26.7379C101.526 26.7764 101.495 26.8081 101.457 26.8296C101.418 26.8511 101.375 26.8615 101.331 26.8595L101.107 26.8501C101.062 26.8483 101.019 26.8336 100.982 26.8077C100.945 26.7819 100.916 26.746 100.898 26.7042L90.6986 1.59728C90.6803 1.55376 90.6498 1.51655 90.6106 1.49028C90.5715 1.46401 90.5255 1.44983 90.4784 1.4495H83.2022C83.1394 1.4495 83.0791 1.47453 83.0347 1.51908C82.9903 1.56364 82.9653 1.62407 82.9653 1.68708V4.55863C82.9653 4.62164 82.9903 4.68207 83.0347 4.72663C83.0791 4.77118 83.1394 4.79621 83.2022 4.79621H85.1817C85.2204 4.79621 85.2585 4.80571 85.2927 4.82388C85.3269 4.84205 85.3561 4.86834 85.3779 4.90045C85.3996 4.93256 85.4131 4.96952 85.4173 5.00809C85.4215 5.04666 85.4162 5.08567 85.4019 5.12172L76.26 28.1129C76.2424 28.157 76.2121 28.1949 76.1728 28.2216C76.1336 28.2483 76.0872 28.2625 76.0398 28.2625H75.8533C75.8219 28.2628 75.7908 28.2567 75.7618 28.2448C75.7329 28.2328 75.7066 28.2151 75.6845 28.1928C75.6624 28.1705 75.645 28.144 75.6333 28.1149C75.6216 28.0857 75.6158 28.0545 75.6163 28.0231L75.7227 15.521C75.7232 15.4584 75.6989 15.398 75.6552 15.3532C75.6115 15.3083 75.552 15.2826 75.4894 15.2816H67.1423C67.1109 15.2818 67.0798 15.2883 67.0509 15.3007C67.022 15.3131 66.9958 15.3312 66.974 15.3538C66.9521 15.3765 66.9349 15.4032 66.9235 15.4326C66.912 15.4619 66.9065 15.4933 66.9072 15.5248V18.2037C66.907 18.2348 66.9129 18.2656 66.9246 18.2944C66.9363 18.3233 66.9536 18.3495 66.9754 18.3715C66.9973 18.3936 67.0233 18.4112 67.0519 18.4231C67.0806 18.4351 67.1113 18.4412 67.1423 18.4412L69.4763 18.4599C69.5072 18.4604 69.5378 18.4671 69.5661 18.4795C69.5945 18.492 69.6201 18.5099 69.6415 18.5324C69.6628 18.5549 69.6795 18.5814 69.6906 18.6103C69.7016 18.6393 69.7068 18.6703 69.7058 18.7013L69.5341 27.1008C69.5334 27.1465 69.5194 27.191 69.4939 27.2288C69.4684 27.2667 69.4325 27.2963 69.3905 27.3141C68.7953 27.561 66.4464 28.3822 64.674 26.809L64.6423 26.7734C62.799 24.4444 62.4184 23.5109 62.4184 22.0592C62.4184 20.658 62.409 14.2995 62.4053 11.297C62.3917 9.58148 62.923 7.90617 63.9221 6.51354C64.7169 5.42291 65.8606 4.45574 67.4427 4.3884C67.457 4.38746 67.4713 4.38746 67.4856 4.3884C70.1386 4.67088 71.7301 5.51083 73.7301 9.69376C73.7465 9.72672 73.7703 9.75543 73.7996 9.77766C73.829 9.79989 73.863 9.81503 73.8991 9.82191C73.9352 9.82879 73.9724 9.82722 74.0078 9.81732C74.0432 9.80743 74.0759 9.78947 74.1032 9.76485C74.6196 9.28083 75.0841 8.74415 75.4894 8.16351C75.5116 8.13204 75.5254 8.09547 75.5296 8.0572C75.5339 8.01893 75.5284 7.98021 75.5137 7.94464C75.2301 7.26182 73.7991 3.70746 73.064 2.11922C73.0275 2.0403 72.9731 1.97099 72.9053 1.91675C72.8375 1.86251 72.758 1.82483 72.6731 1.80669C72.5882 1.78854 72.5003 1.79043 72.4163 1.8122C72.3323 1.83398 72.2545 1.87504 72.189 1.93214L72.0136 2.08741C71.9814 2.11555 71.9421 2.13427 71.9 2.14153C71.8579 2.14879 71.8146 2.14431 71.7748 2.12857C70.8009 1.73572 64.5359 -0.567138 60.9538 3.52038C57.1049 7.91096 55.9742 12.7299 56.4761 19.9827C56.4784 20.0151 56.4741 20.0477 56.4633 20.0784C56.4525 20.109 56.4356 20.1372 56.4136 20.161C56.3916 20.1849 56.3649 20.2039 56.3352 20.217C56.3055 20.2301 56.2735 20.237 56.241 20.2371C56.1944 20.2371 56.1488 20.2232 56.1099 20.1972C56.0711 20.1713 56.0408 20.1344 56.0228 20.0912L51.0693 8.06436C51.0511 8.01983 51.0196 7.98198 50.9793 7.95589C50.9389 7.92981 50.8916 7.91674 50.8436 7.91845L47.1663 8.02508C47.1065 8.02929 47.0506 8.05587 47.0094 8.09952C46.9683 8.14318 46.9451 8.20074 46.9443 8.26079L46.9349 9.78355C46.9347 9.81563 46.9409 9.84743 46.9533 9.87701C46.9657 9.90658 46.984 9.93331 47.007 9.95555C47.0301 9.97779 47.0574 9.99508 47.0874 10.0064C47.1173 10.0176 47.1493 10.0227 47.1812 10.0211L47.8305 9.99494C47.893 9.99593 47.9526 10.0217 47.9963 10.0665C48.04 10.1114 48.0642 10.1717 48.0637 10.2344V10.9471C48.064 10.9787 48.0577 11.0099 48.045 11.0388L44.4051 19.4757C44.3868 19.5181 44.3566 19.5541 44.3181 19.5794C44.2796 19.6046 44.2346 19.6181 44.1886 19.6179H43.7726C43.7097 19.6179 43.6495 19.643 43.605 19.6875C43.5606 19.7321 43.5356 19.7925 43.5356 19.8555V20.7478C43.5356 20.8108 43.5606 20.8713 43.605 20.9158C43.6495 20.9604 43.7097 20.9854 43.7726 20.9854H46.6924C46.7552 20.9854 46.8155 20.9604 46.8599 20.9158C46.9044 20.8713 46.9293 20.8108 46.9293 20.7478V19.8555C46.9293 19.7925 46.9044 19.7321 46.8599 19.6875C46.8155 19.643 46.7552 19.6179 46.6924 19.6179C46.6518 19.6179 46.6119 19.6075 46.5765 19.5876C46.541 19.5676 46.5113 19.5389 46.4902 19.5042C46.469 19.4694 46.4571 19.4298 46.4556 19.3891C46.4541 19.3485 46.463 19.3081 46.4816 19.2718L46.6252 18.9931C46.6445 18.9542 46.674 18.9213 46.7104 18.8979C46.7469 18.8745 46.789 18.8615 46.8323 18.8603H51.3958C51.443 18.8601 51.4892 18.8741 51.5284 18.9004C51.5677 18.9268 51.5981 18.9643 51.616 19.0081L52.8287 22.0012C52.8429 22.0374 52.8482 22.0765 52.844 22.1151C52.8398 22.1538 52.8262 22.1908 52.8046 22.223C52.7829 22.2553 52.7537 22.2817 52.7196 22.3001C52.6854 22.3185 52.6473 22.3283 52.6085 22.3286H52.3212C52.2902 22.3284 52.2594 22.3343 52.2307 22.346C52.2019 22.3577 52.1758 22.3751 52.1538 22.397C52.1318 22.4189 52.1143 22.445 52.1023 22.4737C52.0904 22.5024 52.0843 22.5332 52.0843 22.5643V23.8738C52.0843 23.9368 52.1092 23.9973 52.1537 24.0418C52.1981 24.0864 52.2584 24.1114 52.3212 24.1114H57.1254C57.1718 24.1113 57.2173 24.1249 57.2561 24.1505C57.2949 24.1761 57.3254 24.2126 57.3437 24.2554C57.7672 25.2712 60.5154 31.2781 66.1703 31.2912C71.7674 31.3043 80.413 31.2912 81.9727 31.2912C82.0344 31.2907 82.0935 31.2659 82.1371 31.2222C82.1807 31.1784 82.2055 31.1192 82.2059 31.0574L82.1145 28.6591C82.1117 28.5979 82.0855 28.5401 82.0414 28.4976C81.9973 28.4552 81.9387 28.4313 81.8776 28.4309H79.8682C79.8287 28.4311 79.7898 28.4214 79.755 28.4027C79.7202 28.384 79.6906 28.3569 79.6689 28.3238C79.6473 28.2907 79.6342 28.2527 79.6308 28.2133C79.6275 28.1738 79.6341 28.1342 79.6499 28.0979L80.8067 25.4359C80.8252 25.3934 80.8558 25.3573 80.8946 25.332C80.9334 25.3068 80.9787 25.2934 81.025 25.2937H92.9524C92.9983 25.2938 93.0432 25.3073 93.0816 25.3325C93.1201 25.3578 93.1503 25.3937 93.1688 25.4359L94.3516 28.1391C94.3674 28.1752 94.374 28.2147 94.3708 28.254C94.3675 28.2933 94.3546 28.3311 94.3332 28.3642C94.3117 28.3972 94.2823 28.4244 94.2478 28.4432C94.2132 28.462 94.1745 28.4719 94.1352 28.472H91.7994C91.7365 28.472 91.6763 28.4971 91.6318 28.5416C91.5874 28.5862 91.5624 28.6466 91.5624 28.7096V31.0742C91.5624 31.1367 91.5872 31.1967 91.6313 31.2409C91.6754 31.2851 91.7351 31.3099 91.7975 31.3099L136.418 31.5943C136.461 31.5949 136.504 31.5833 136.541 31.5608C136.578 31.5383 136.609 31.5059 136.628 31.4671L139.931 25.1365C139.959 25.0818 139.966 25.0179 139.948 24.9585C139.931 24.8991 139.891 24.8489 139.837 24.8185L138.457 24.0515C138.404 24.022 138.342 24.014 138.283 24.0289C138.224 24.0439 138.174 24.0807 138.141 24.132C137.638 24.9439 135.625 28.0885 134.388 28.502C134.364 28.511 134.338 28.5154 134.313 28.5151C132.666 28.5151 128.412 28.4178 127.121 28.3841C127.081 28.3831 127.042 28.3718 127.007 28.3513C126.973 28.3309 126.944 28.302 126.924 28.2673C126.904 28.2327 126.893 28.1934 126.892 28.1533C126.891 28.1132 126.9 28.0735 126.919 28.038L138.888 4.93839C138.908 4.90001 138.938 4.86784 138.974 4.84541C139.011 4.82297 139.054 4.81113 139.097 4.81118H141.815C141.846 4.81093 141.877 4.81696 141.906 4.82893C141.935 4.8409 141.962 4.85855 141.984 4.88087C142.006 4.90318 142.023 4.92969 142.035 4.95884C142.047 4.988 142.052 5.01921 142.052 5.05063L141.834 28.6554C141.834 28.7179 141.809 28.7778 141.765 28.822C141.721 28.8662 141.661 28.8911 141.599 28.8911H139.746C139.715 28.8911 139.684 28.8972 139.656 28.9092C139.627 28.9212 139.601 28.9387 139.579 28.9608C139.557 28.9829 139.54 29.0091 139.528 29.0379C139.516 29.0667 139.511 29.0975 139.511 29.1287V31.3586C139.511 31.3897 139.516 31.4205 139.528 31.4493C139.54 31.4782 139.557 31.5044 139.579 31.5264C139.601 31.5485 139.627 31.5661 139.656 31.578C139.684 31.59 139.715 31.5961 139.746 31.5961H156.274C156.316 31.5957 156.357 31.5844 156.392 31.5634C156.428 31.5424 156.458 31.5125 156.479 31.4764L160.024 25.2207C160.04 25.1914 160.05 25.1589 160.053 25.1254C160.056 25.092 160.052 25.0583 160.041 25.0265C160.03 24.9948 160.013 24.9657 159.99 24.9411C159.967 24.9166 159.939 24.8971 159.909 24.884L158.097 24.1357C158.045 24.1147 157.987 24.1129 157.934 24.1307C157.88 24.1486 157.835 24.1848 157.806 24.233ZM47.476 16.6846L48.8585 13.5044C48.8771 13.4625 48.9075 13.4269 48.9459 13.4019C48.9843 13.3769 49.0291 13.3636 49.0749 13.3636C49.1207 13.3636 49.1655 13.3769 49.2039 13.4019C49.2423 13.4269 49.2727 13.4625 49.2913 13.5044L50.7242 16.6734C50.7403 16.7095 50.7472 16.749 50.7443 16.7884C50.7414 16.8278 50.7287 16.8659 50.7074 16.8991C50.686 16.9324 50.6568 16.9598 50.6223 16.9788C50.5878 16.9979 50.549 17.008 50.5096 17.0083H47.6906C47.6524 17.0077 47.615 16.9978 47.5815 16.9795C47.548 16.9612 47.5194 16.9349 47.4983 16.9031C47.4772 16.8712 47.4641 16.8347 47.4602 16.7966C47.4564 16.7586 47.4618 16.7201 47.476 16.6846ZM82.2955 21.8347C82.9597 20.0632 86.1612 11.499 86.6034 10.225C86.6197 10.1787 86.6501 10.1387 86.6902 10.1105C86.7304 10.0823 86.7783 10.0674 86.8273 10.0679H86.9206C86.9687 10.0681 87.0156 10.0828 87.0552 10.1102C87.0948 10.1376 87.1253 10.1763 87.1426 10.2213L91.4449 21.8366C91.4581 21.8725 91.4625 21.9111 91.4576 21.949C91.4528 21.987 91.4389 22.0232 91.4171 22.0546C91.3953 22.086 91.3663 22.1117 91.3324 22.1294C91.2986 22.1472 91.261 22.1565 91.2229 22.1565H82.5175C82.4793 22.1561 82.4417 22.1466 82.4079 22.1286C82.3741 22.1107 82.3451 22.0848 82.3234 22.0533C82.3016 22.0218 82.2877 21.9854 82.2829 21.9474C82.278 21.9094 82.2824 21.8707 82.2955 21.8347Z" fill="#2D224C"/>
<path d="M212.98 28.9137L201.797 2.12688C201.774 2.07081 201.735 2.023 201.684 1.98965C201.634 1.9563 201.574 1.93893 201.514 1.9398L194.487 2.02399C194.408 2.02545 194.331 2.05816 194.275 2.11514C194.219 2.17211 194.188 2.24883 194.187 2.32891V4.98159C194.187 5.06214 194.219 5.13942 194.275 5.19655C194.332 5.25368 194.409 5.28603 194.489 5.28652H196.202C196.252 5.28687 196.3 5.29938 196.344 5.32296C196.388 5.34653 196.425 5.38046 196.453 5.42178C196.48 5.4631 196.497 5.51056 196.502 5.56002C196.507 5.60948 196.5 5.65945 196.482 5.70556L187.153 28.9829C187.13 29.0387 187.091 29.0863 187.041 29.1196C186.991 29.153 186.932 29.1705 186.872 29.17H185.435C185.395 29.17 185.356 29.1621 185.319 29.1467C185.282 29.1314 185.249 29.1089 185.221 29.0806C185.193 29.0522 185.17 29.0186 185.155 28.9816C185.14 28.9446 185.133 28.905 185.133 28.8651L185.282 5.69995C185.282 5.61957 185.314 5.54249 185.371 5.48566C185.427 5.42882 185.504 5.39689 185.584 5.39689H189.157C189.179 5.39404 189.202 5.39404 189.224 5.39689C189.381 5.43244 190.032 5.59706 190.178 5.89263C190.323 6.18821 191.111 7.88682 191.424 8.54157C191.456 8.60911 191.512 8.66244 191.581 8.69142C191.649 8.72039 191.727 8.72299 191.797 8.69871L193.12 8.21981C193.159 8.20569 193.195 8.18358 193.225 8.15488C193.256 8.12618 193.28 8.09149 193.296 8.05302C193.312 8.01454 193.32 7.9731 193.32 7.9313C193.32 7.88949 193.311 7.84824 193.293 7.81012L190.736 2.13062C190.712 2.07601 190.674 2.02928 190.625 1.99608C190.576 1.96288 190.519 1.94463 190.459 1.94355L161.741 1.83691C161.684 1.83678 161.628 1.85267 161.58 1.88278C161.532 1.91289 161.493 1.95599 161.468 2.00715L158.604 7.80638C158.586 7.84397 158.576 7.88496 158.574 7.9268C158.572 7.96865 158.578 8.01044 158.593 8.04958C158.608 8.08873 158.631 8.12437 158.66 8.1543C158.689 8.18424 158.724 8.20781 158.763 8.22355L160.069 8.75483C160.14 8.78446 160.22 8.78564 160.292 8.75815C160.363 8.73065 160.422 8.67657 160.455 8.60705C160.868 7.75213 162.254 5.05268 163.412 4.99469C164.584 5.00965 165.683 4.99469 166.2 4.99469C166.24 4.99393 166.28 5.00134 166.318 5.01647C166.356 5.03159 166.39 5.05413 166.418 5.08275C166.447 5.11136 166.47 5.14547 166.485 5.18305C166.5 5.22062 166.508 5.2609 166.508 5.30149L166.304 28.7603C166.304 28.8409 166.271 28.9179 166.214 28.9747C166.158 29.0315 166.08 29.0634 166 29.0634H163.883C163.802 29.0634 163.725 29.0953 163.669 29.1521C163.612 29.209 163.58 29.286 163.58 29.3664V31.5907C163.58 31.6308 163.587 31.6706 163.602 31.7078C163.617 31.745 163.639 31.7789 163.667 31.8074C163.696 31.836 163.729 31.8586 163.766 31.8741C163.803 31.8895 163.843 31.8975 163.883 31.8975H174.427C174.508 31.897 174.585 31.8647 174.641 31.8075C174.698 31.7504 174.73 31.6731 174.73 31.5926V29.4394C174.729 29.3599 174.698 29.2838 174.643 29.2269C174.587 29.17 174.512 29.1369 174.433 29.1345L172.618 29.0952C172.539 29.0937 172.463 29.0611 172.408 29.0044C172.352 28.9478 172.321 28.8715 172.321 28.7921L172.371 5.45863C172.372 5.41858 172.38 5.37898 172.395 5.34208C172.411 5.30518 172.433 5.2717 172.462 5.24356C172.49 5.21542 172.524 5.19316 172.561 5.17806C172.598 5.16297 172.637 5.15532 172.677 5.15557L179.088 5.20234C179.168 5.20332 179.245 5.23608 179.302 5.29351C179.358 5.35094 179.39 5.42841 179.39 5.50914L179.237 28.8052C179.237 28.8453 179.229 28.885 179.214 28.9221C179.198 28.9591 179.176 28.9926 179.147 29.0208C179.119 29.049 179.085 29.0713 179.048 29.0863C179.011 29.1013 178.971 29.1088 178.931 29.1083L177.028 29.0914C176.988 29.0912 176.948 29.0989 176.911 29.1141C176.874 29.1293 176.84 29.1517 176.812 29.1801C176.784 29.2084 176.761 29.2421 176.746 29.2792C176.73 29.3163 176.722 29.3562 176.722 29.3964V31.5814C176.722 31.6619 176.754 31.7392 176.811 31.7963C176.867 31.8534 176.944 31.8858 177.024 31.8863H193.256C193.297 31.8861 193.338 31.8775 193.376 31.8609C193.414 31.8443 193.448 31.8201 193.477 31.7898C193.505 31.7595 193.527 31.7237 193.541 31.6847C193.555 31.6456 193.561 31.6041 193.558 31.5626L193.417 29.3496C193.412 29.2718 193.377 29.1989 193.32 29.146C193.263 29.093 193.188 29.0641 193.111 29.0652L191.219 29.0858C191.168 29.0865 191.119 29.0745 191.074 29.051C191.029 29.0275 190.991 28.9932 190.963 28.9511C190.935 28.9091 190.918 28.8608 190.914 28.8104C190.909 28.7601 190.917 28.7094 190.937 28.663L191.986 26.1656C192.008 26.1101 192.047 26.0628 192.097 26.0294C192.147 25.9961 192.206 25.9784 192.265 25.9785H203.92C203.98 25.9787 204.039 25.9965 204.088 26.0298C204.138 26.063 204.177 26.1103 204.2 26.1656L205.346 28.8146C205.366 28.8617 205.375 28.9132 205.37 28.9645C205.365 29.0157 205.348 29.0648 205.319 29.1073C205.29 29.1498 205.25 29.1842 205.205 29.2073C205.159 29.2303 205.108 29.2413 205.057 29.2392L203.064 29.1606C203.024 29.1591 202.984 29.1656 202.946 29.1797C202.909 29.1938 202.874 29.2151 202.845 29.2426C202.816 29.2701 202.792 29.3031 202.776 29.3398C202.759 29.3764 202.75 29.416 202.749 29.4562L202.696 31.5757C202.695 31.6163 202.702 31.6567 202.717 31.6946C202.731 31.7324 202.753 31.767 202.782 31.7961C202.81 31.8252 202.844 31.8484 202.881 31.8642C202.918 31.88 202.958 31.8882 202.999 31.8881H214.928C214.968 31.8882 215.008 31.8802 215.045 31.8647C215.081 31.8493 215.115 31.8266 215.143 31.7981C215.171 31.7695 215.193 31.7357 215.208 31.6985C215.223 31.6613 215.231 31.6215 215.23 31.5814V29.4038C215.23 29.364 215.223 29.3244 215.208 29.2876C215.193 29.2507 215.17 29.2172 215.142 29.189C215.114 29.1608 215.081 29.1385 215.044 29.1233C215.007 29.1082 214.968 29.1005 214.928 29.1008H213.264C213.203 29.1014 213.144 29.0839 213.094 29.0506C213.043 29.0173 213.004 28.9696 212.98 28.9137ZM193.605 22.3063C194.327 20.3739 197.376 12.2213 197.862 10.8313C197.883 10.7719 197.921 10.7203 197.973 10.6841C198.024 10.6478 198.085 10.6286 198.148 10.6293C198.21 10.6292 198.271 10.6481 198.322 10.6836C198.373 10.719 198.412 10.7693 198.433 10.8276L202.685 22.3082C202.702 22.3543 202.708 22.4037 202.701 22.4524C202.695 22.501 202.677 22.5474 202.649 22.5876C202.621 22.6278 202.584 22.6606 202.54 22.6833C202.497 22.706 202.449 22.7179 202.4 22.7179H193.889C193.84 22.7177 193.791 22.7056 193.748 22.6827C193.705 22.6598 193.667 22.6267 193.64 22.5863C193.612 22.5459 193.594 22.4993 193.588 22.4506C193.582 22.4018 193.588 22.3523 193.605 22.3063Z" fill="#2D224C"/>
<path d="M122.346 39.3413C109.216 40.0522 107.564 67.9633 121.848 70.1464C122.197 70.2016 122.553 70.2016 122.902 70.1464C137.08 67.808 135.401 40.1195 122.346 39.3413ZM122.318 66.8166C119.52 66.8652 119.051 64.119 119.051 64.119C119.051 64.119 119.132 48.0214 119.186 45.4548C119.231 43.2661 121.546 42.905 122.225 42.8452V42.8339C122.287 42.8377 122.349 42.8377 122.412 42.8339V42.8452C123.091 42.905 125.406 43.2661 125.453 45.4548C125.507 48.0214 125.587 64.119 125.587 64.119C125.587 64.119 125.117 66.8652 122.318 66.8166Z" fill="#2D224C"/>
<path d="M173.634 39.3413C160.502 40.0522 158.852 67.9633 173.134 70.1464C173.484 70.2016 173.84 70.2016 174.19 70.1464C188.364 67.808 186.685 40.1195 173.634 39.3413ZM173.614 66.8166C170.815 66.8652 170.345 64.119 170.345 64.119C170.345 64.119 170.425 48.0214 170.479 45.4548C170.526 43.2661 172.841 42.905 173.521 42.8452V42.8339C173.583 42.8377 173.645 42.8377 173.707 42.8339V42.8452C174.386 42.905 176.692 43.2661 176.746 45.4548C176.8 48.0214 176.881 64.119 176.881 64.119C176.881 64.119 176.407 66.8652 173.614 66.8166Z" fill="#2D224C"/>
<path d="M234.025 39.3413C220.893 40.0522 219.243 67.9633 233.525 70.1464C233.874 70.2016 234.23 70.2016 234.579 70.1464C248.759 67.808 247.078 40.1195 234.025 39.3413ZM234.005 66.8166C231.206 66.8652 230.736 64.119 230.736 64.119C230.736 64.119 230.816 48.0214 230.87 45.4548C230.917 43.2661 233.232 42.905 233.911 42.8452V42.8339C233.974 42.8377 234.036 42.8377 234.098 42.8339V42.8452C234.777 42.905 237.083 43.2661 237.137 45.4548C237.191 48.0214 237.272 64.119 237.272 64.119C237.272 64.119 236.798 66.8652 234.005 66.8166Z" fill="#2D224C"/>
<path d="M153.289 47.2227L150.763 41.2364C150.73 41.158 150.679 41.0886 150.614 41.0342C150.549 40.9797 150.471 40.9417 150.389 40.9234C150.306 40.905 150.22 40.9069 150.138 40.9288C150.056 40.9507 149.98 40.992 149.918 41.0493L149.63 41.3112C149.6 41.3403 149.561 41.3602 149.52 41.3684C149.478 41.3767 149.435 41.3731 149.395 41.358C148.185 40.909 138.817 37.8204 135.425 48.1019C131.8 59.0905 135.126 68.4366 143.227 70.4458H143.281C148.99 70.5281 164.392 70.6534 164.377 70.515C164.362 70.3766 164.239 68.489 164.19 67.8492C164.187 67.7922 164.162 67.7385 164.122 67.6985C164.081 67.6585 164.027 67.6349 163.97 67.6322L161.951 67.5405C161.892 67.5381 161.835 67.5126 161.794 67.4694C161.753 67.4261 161.729 67.3685 161.729 67.3086L161.812 43.6571C161.812 43.5976 161.836 43.5407 161.877 43.498C161.918 43.4552 161.974 43.4298 162.034 43.427L163.795 43.3484C163.825 43.3472 163.855 43.34 163.882 43.3274C163.909 43.3147 163.934 43.2967 163.954 43.2744C163.975 43.2522 163.991 43.2261 164.001 43.1977C164.011 43.1693 164.016 43.1392 164.015 43.1089L163.935 40.8285C163.932 40.7688 163.907 40.7122 163.865 40.6705C163.822 40.6287 163.765 40.605 163.705 40.6041L153.257 40.5386C153.197 40.5381 153.139 40.5613 153.095 40.6032C153.052 40.6452 153.026 40.7025 153.024 40.7631L152.955 43.2511C152.954 43.2824 152.959 43.3135 152.971 43.3426C152.982 43.3718 152.999 43.3983 153.021 43.4207C153.043 43.4431 153.069 43.4608 153.097 43.4728C153.126 43.4848 153.157 43.4908 153.188 43.4906L155.427 43.4663C155.458 43.466 155.488 43.4719 155.517 43.4835C155.545 43.4952 155.571 43.5123 155.593 43.5341C155.615 43.5558 155.632 43.5817 155.644 43.6102C155.656 43.6387 155.662 43.6692 155.662 43.7001L155.517 67.4994C155.517 67.5299 155.511 67.5602 155.499 67.5883C155.487 67.6165 155.47 67.642 155.448 67.6634C155.426 67.6848 155.401 67.7017 155.372 67.7131C155.344 67.7244 155.314 67.73 155.283 67.7295L153.479 67.707C153.418 67.706 153.36 67.6809 153.318 67.6371C153.275 67.5933 153.251 67.5344 153.252 67.4732L153.386 55.0105C153.386 54.9491 153.362 54.8902 153.319 54.8464C153.276 54.8027 153.218 54.7776 153.157 54.7766L144.987 54.67C144.956 54.6695 144.926 54.6751 144.897 54.6866C144.869 54.698 144.843 54.715 144.821 54.7366C144.799 54.7582 144.781 54.7839 144.77 54.8123C144.758 54.8407 144.752 54.8712 144.752 54.902V57.3227C144.752 57.384 144.777 57.4428 144.82 57.4862C144.863 57.5296 144.922 57.5542 144.983 57.5546H147.093C147.151 57.5555 147.207 57.5784 147.249 57.6186C147.29 57.6589 147.316 57.7136 147.319 57.7716V66.4724C147.319 66.5161 147.307 66.5591 147.284 66.5962C147.261 66.6333 147.228 66.663 147.188 66.6819C146.504 67.0043 145.748 67.1409 144.995 67.0782C144.242 67.0155 143.519 66.7556 142.897 66.3246C142.883 66.3143 142.87 66.3023 142.858 66.289C140.619 63.9712 139.862 61.8311 140.164 58.9016V58.8941C140.192 51.6918 139.998 47.7072 141.375 46.2443C142.429 44.6298 144.468 42.3326 148.185 44.6149L148.218 44.6411C149.338 45.6157 150.683 46.8167 151.399 48.7697C151.412 48.8055 151.434 48.8375 151.462 48.8627C151.491 48.888 151.525 48.9058 151.562 48.9145C151.599 48.9232 151.638 48.9226 151.674 48.9127C151.711 48.9028 151.745 48.8839 151.772 48.8577C152.686 48.0065 153.065 47.6417 153.224 47.4864C153.261 47.4549 153.287 47.4125 153.299 47.3651C153.311 47.3178 153.307 47.2679 153.289 47.2227Z" fill="#2D224C"/>
<path d="M216.687 41.0397V43.4492C216.687 43.5375 216.722 43.6222 216.785 43.6847C216.847 43.7471 216.931 43.7822 217.019 43.7822H219.504C219.593 43.7822 219.677 43.8173 219.739 43.8797C219.802 43.9422 219.837 44.0269 219.837 44.1152V56.6939C219.836 56.7674 219.812 56.8388 219.767 56.8969C219.722 56.955 219.659 56.9966 219.588 57.0151C219.517 57.0337 219.442 57.0282 219.375 56.9996C219.307 56.9709 219.251 56.9207 219.215 56.8567L210.284 40.8059C210.256 40.7539 210.214 40.7104 210.163 40.6802C210.112 40.6499 210.054 40.6339 209.995 40.6338H203.68C203.592 40.6338 203.507 40.6689 203.445 40.7313C203.383 40.7938 203.348 40.8785 203.348 40.9668V43.4492C203.348 43.5375 203.383 43.6222 203.445 43.6847C203.507 43.7471 203.592 43.7822 203.68 43.7822H205.644C205.732 43.7822 205.817 43.8173 205.879 43.8797C205.941 43.9422 205.976 44.0269 205.976 44.1152V66.7509C205.976 66.8389 205.942 66.9233 205.88 66.9857C205.818 67.0481 205.734 67.0834 205.646 67.0839C204.859 67.0839 202.831 66.7696 201.428 63.7447C201.422 63.7316 201.415 63.7191 201.407 63.7072C200.333 61.9974 198.148 60.1772 197.568 59.7095C197.523 59.6735 197.489 59.6267 197.468 59.5736C197.447 59.5206 197.441 59.463 197.448 59.4065C197.456 59.3448 197.482 59.2867 197.521 59.2387C197.561 59.1908 197.613 59.1549 197.672 59.1352C198.659 58.8078 203.083 57.0905 203.829 52.4511C204.663 47.2318 203.323 41.9077 197.29 40.776C197.269 40.7741 197.249 40.7741 197.228 40.776C191.476 40.7124 184.862 40.761 183.33 40.776C183.287 40.776 183.244 40.7845 183.204 40.8012C183.164 40.8179 183.128 40.8423 183.098 40.8731C183.067 40.9038 183.043 40.9403 183.027 40.9805C183.01 41.0207 183.002 41.0637 183.002 41.1071V43.4155C183.004 43.5013 183.039 43.583 183.099 43.6436C183.16 43.7042 183.241 43.7391 183.327 43.7411H185.379L185.388 43.7822L185.288 67.5235C185.287 67.6115 185.252 67.6957 185.19 67.7578C185.127 67.8198 185.043 67.8546 184.955 67.8546H183.327C183.239 67.8546 183.154 67.8897 183.092 67.9522C183.03 68.0146 182.995 68.0993 182.995 68.1876V70.2548C182.995 70.3431 183.03 70.4278 183.092 70.4902C183.154 70.5527 183.239 70.5878 183.327 70.5878H193.961C194.049 70.5878 194.134 70.5527 194.196 70.4902C194.258 70.4278 194.293 70.3431 194.293 70.2548V68.1876C194.293 68.0993 194.258 68.0146 194.196 67.9522C194.134 67.8897 194.049 67.8546 193.961 67.8546H191.997C191.953 67.8549 191.91 67.8465 191.87 67.83C191.829 67.8134 191.793 67.7891 191.762 67.7583C191.731 67.7275 191.707 67.691 191.69 67.6507C191.673 67.6104 191.665 67.5672 191.665 67.5235V60.1286C191.663 60.0544 191.687 59.982 191.732 59.9232C191.777 59.8644 191.841 59.8227 191.913 59.8049C192.166 59.7507 192.61 59.7694 193.219 60.2202C193.239 60.2345 193.258 60.2515 193.275 60.2707C194.073 61.1818 194.558 61.1612 196.086 65.1776C197.629 69.2352 202.448 69.8413 202.448 69.8413C202.448 69.8413 208.752 70.8889 210.868 69.7197C210.921 69.6909 210.964 69.6484 210.995 69.5967C211.026 69.545 211.042 69.4861 211.042 69.426V67.3926C211.042 67.3042 211.007 67.2196 210.944 67.1571C210.882 67.0947 210.798 67.0596 210.71 67.0596H208.948C208.905 67.0598 208.862 67.0515 208.823 67.0352C208.783 67.0189 208.746 66.9949 208.716 66.9645C208.685 66.9341 208.661 66.8979 208.644 66.858C208.627 66.8182 208.618 66.7754 208.618 66.7322L208.432 54.1105C208.43 54.0368 208.454 53.9648 208.498 53.9057C208.542 53.8467 208.604 53.8041 208.675 53.7844C208.746 53.7647 208.821 53.7691 208.889 53.797C208.957 53.8249 209.014 53.8746 209.051 53.9383L218.122 69.5925C218.151 69.643 218.192 69.6849 218.242 69.7141C218.293 69.7433 218.349 69.7588 218.407 69.759H221.745C221.833 69.7585 221.917 69.7232 221.979 69.6608C222.041 69.5984 222.075 69.514 222.075 69.426V44.1152C222.075 44.0269 222.11 43.9422 222.173 43.8797C222.235 43.8173 222.319 43.7822 222.407 43.7822H224.745C224.833 43.7817 224.917 43.7464 224.979 43.684C225.041 43.6216 225.075 43.5372 225.075 43.4492V41.0397C225.075 40.9519 225.041 40.8677 224.979 40.8056C224.917 40.7435 224.833 40.7086 224.745 40.7086H217.023C216.979 40.7081 216.936 40.7163 216.895 40.7327C216.855 40.7491 216.818 40.7734 216.786 40.8042C216.755 40.8349 216.73 40.8716 216.713 40.912C216.696 40.9524 216.688 40.9958 216.687 41.0397ZM191.754 56.1103C191.754 54.2096 191.743 45.6342 191.754 43.8533C191.755 43.7653 191.791 43.6813 191.853 43.6196C191.916 43.5579 192 43.5236 192.088 43.524C193.355 43.5409 197.829 44.0479 197.959 50.2942C198.03 55.1768 193.5 56.2318 192.138 56.4376C192.091 56.4455 192.043 56.443 191.996 56.4301C191.95 56.4173 191.907 56.3945 191.871 56.3633C191.834 56.3322 191.805 56.2934 191.784 56.2497C191.764 56.206 191.754 56.1584 191.754 56.1103Z" fill="#2D224C"/>
<path d="M106.951 67.2391C102.891 67.2391 100.182 67.2485 99.3012 67.2485C99.2671 67.2508 99.233 67.2436 99.2026 67.2278C99.1722 67.212 99.1468 67.188 99.1291 67.1587C99.1114 67.1293 99.102 67.0956 99.1021 67.0613C99.1022 67.027 99.1117 66.9934 99.1296 66.9641L112.9 40.688C112.919 40.6588 112.928 40.6252 112.929 40.5908C112.929 40.5563 112.92 40.5224 112.903 40.4928C112.885 40.4633 112.86 40.4391 112.829 40.423C112.799 40.4069 112.765 40.3996 112.731 40.4018L96.5381 40.3101C96.5036 40.3102 96.4698 40.3194 96.44 40.3368C96.4101 40.3542 96.3854 40.3792 96.3684 40.4093L92.8944 46.519C92.8748 46.548 92.8637 46.5819 92.8623 46.6168C92.861 46.6518 92.8694 46.6865 92.8867 46.7169C92.904 46.7473 92.9295 46.7722 92.9602 46.7888C92.9909 46.8054 93.0256 46.8131 93.0605 46.8109L95.0139 46.8445C95.049 46.8449 95.0835 46.836 95.114 46.8185C95.1445 46.8011 95.1698 46.7759 95.1874 46.7454C95.4989 46.1842 97.0531 43.4623 98.1072 43.2939H98.1426C99.7415 43.2939 103.333 43.3126 104.432 43.3145C104.466 43.3124 104.501 43.32 104.531 43.3363C104.561 43.3526 104.587 43.377 104.604 43.4068C104.621 43.4367 104.63 43.4708 104.63 43.5053C104.629 43.5399 104.618 43.5735 104.6 43.6026L91.6127 67.2092C91.5954 67.24 91.5702 67.2656 91.5397 67.2834C91.5092 67.3012 91.4745 67.3104 91.4392 67.3102L81.0137 67.1493C80.9796 67.1511 80.9456 67.1435 80.9155 67.1273C80.8854 67.1111 80.8603 67.0869 80.843 67.0574C80.8257 67.0278 80.8168 66.9941 80.8173 66.9598C80.8177 66.9256 80.8276 66.8921 80.8458 66.8631L94.5997 40.6337C94.6174 40.6046 94.6269 40.5712 94.6271 40.537C94.6272 40.5029 94.6181 40.4694 94.6006 40.4401C94.5831 40.4108 94.5579 40.3869 94.5279 40.3709C94.4978 40.3549 94.4639 40.3475 94.4299 40.3494L78.4129 40.2072C78.3786 40.2059 78.3446 40.2141 78.3146 40.231C78.2847 40.2478 78.2599 40.2726 78.2431 40.3026L74.6181 46.5172C74.598 46.546 74.5865 46.5799 74.5848 46.615C74.5831 46.6501 74.5913 46.6849 74.6084 46.7156C74.6255 46.7462 74.6509 46.7714 74.6817 46.7883C74.7124 46.8051 74.7473 46.813 74.7822 46.8109L76.633 46.8445C76.6671 46.846 76.701 46.8381 76.731 46.8216C76.7609 46.8051 76.7858 46.7807 76.8028 46.751C77.12 46.2216 78.7133 43.6531 79.8793 43.3295C79.8973 43.3268 79.9155 43.3268 79.9334 43.3295C81.9279 43.3295 85.0921 43.365 86.1089 43.3781C86.1434 43.3762 86.1778 43.3839 86.2082 43.4004C86.2387 43.417 86.2639 43.4416 86.2811 43.4717C86.2983 43.5018 86.3069 43.5361 86.3058 43.5708C86.3047 43.6054 86.294 43.6391 86.2749 43.6681L73.0154 67.2447C72.999 67.2748 72.9747 67.2998 72.9451 67.317C72.9155 67.3341 72.8817 67.3428 72.8475 67.342H64.0228L64.1254 53.6296C64.1254 53.6043 64.1305 53.5791 64.1404 53.5558C64.1504 53.5325 64.165 53.5114 64.1833 53.4939C64.2016 53.4764 64.2233 53.4629 64.247 53.454C64.2707 53.4452 64.296 53.4413 64.3213 53.4426L67.728 53.48C67.7619 53.4807 67.795 53.4902 67.8241 53.5076C67.8532 53.525 67.8773 53.5496 67.8941 53.5791L69.5937 56.6134C69.6059 56.6376 69.6231 56.6589 69.6443 56.6758C69.6655 56.6926 69.69 56.7047 69.7163 56.7111C69.7425 56.7175 69.7699 56.7181 69.7964 56.7129C69.8229 56.7076 69.848 56.6967 69.8699 56.6808L71.5359 55.5583C71.5765 55.5331 71.6059 55.4933 71.618 55.447C71.6302 55.4007 71.6242 55.3515 71.6012 55.3095L67.4967 47.0372C67.4856 47.0121 67.4691 46.9897 67.4485 46.9717C67.4278 46.9537 67.4034 46.9405 67.377 46.933C67.3507 46.9255 67.323 46.9239 67.2959 46.9283C67.2689 46.9328 67.2432 46.9431 67.2206 46.9586L65.6291 47.9464C65.5886 47.9716 65.5587 48.0108 65.5449 48.0567C65.5312 48.1025 65.5346 48.1517 65.5545 48.1952L66.5657 50.3615C66.5815 50.3904 66.5894 50.4231 66.5886 50.4561C66.5878 50.4891 66.5783 50.5212 66.561 50.5494C66.5438 50.5775 66.5194 50.6005 66.4904 50.6162C66.4614 50.6318 66.4288 50.6394 66.3959 50.6384L64.3157 50.6889C64.2903 50.6904 64.2648 50.6867 64.2408 50.678C64.2169 50.6693 64.195 50.6557 64.1765 50.6382C64.1579 50.6207 64.1432 50.5995 64.1331 50.5761C64.1231 50.5526 64.1179 50.5273 64.1179 50.5018L64.1776 43.3762C64.1776 43.3266 64.1973 43.279 64.2323 43.2439C64.2673 43.2089 64.3147 43.1892 64.3642 43.1892H68.7337C68.7522 43.1863 68.7711 43.1863 68.7896 43.1892C69.049 43.264 70.9856 43.9225 72.0154 47.0166C72.0225 47.0418 72.0347 47.0653 72.0514 47.0855C72.068 47.1056 72.0887 47.122 72.1121 47.1337C72.1355 47.1453 72.1611 47.1519 72.1872 47.153C72.2132 47.1541 72.2393 47.1497 72.2636 47.1401C73.2636 46.7809 73.7263 46.5939 73.9427 46.4985C73.9665 46.4888 73.988 46.4743 74.0059 46.4559C74.0238 46.4375 74.0378 46.4156 74.0469 46.3915C74.056 46.3675 74.0601 46.3418 74.0588 46.3161C74.0576 46.2904 74.0511 46.2652 74.0397 46.2422L71.493 40.5122C71.4482 40.4101 71.3749 40.3232 71.2818 40.2621C71.1887 40.201 71.08 40.1683 70.9688 40.1679L47.461 40.0651C47.4203 40.0629 47.38 40.0742 47.3464 40.0972C47.3127 40.1201 47.2874 40.1535 47.2744 40.1923L42.5785 52.7205C42.5683 52.7609 42.545 52.7968 42.5123 52.8225C42.4795 52.8481 42.4391 52.8621 42.3975 52.8621C42.3559 52.8621 42.3155 52.8481 42.2827 52.8225C42.2499 52.7968 42.2266 52.7609 42.2165 52.7205L37.2164 40.1343C37.2016 40.0971 37.1758 40.0653 37.1424 40.0432C37.1091 40.0212 37.0698 40.0098 37.0299 40.0108L29.3115 40.0613C29.262 40.0613 29.2146 40.081 29.1796 40.1161C29.1446 40.1512 29.1249 40.1988 29.1249 40.2484L29.0876 42.9029C29.0861 42.9284 29.0898 42.954 29.0985 42.978C29.1071 43.002 29.1206 43.0239 29.1381 43.0425C29.1556 43.0611 29.1767 43.0759 29.2001 43.086C29.2235 43.0961 29.2487 43.1013 29.2742 43.1012H31.6249C31.6744 43.1012 31.7219 43.1209 31.7569 43.156C31.7919 43.1911 31.8115 43.2387 31.8115 43.2883L31.5839 60.1248C31.5838 60.1512 31.5781 60.1774 31.5671 60.2015C31.4589 60.4839 30.6716 62.1582 29.7798 62.4482C29.7572 62.4541 29.734 62.4572 29.7107 62.4576C28.4645 62.4426 27.845 62.4389 27.5596 62.437C27.5101 62.437 27.4627 62.4173 27.4277 62.3822C27.3927 62.3471 27.373 62.2995 27.373 62.2499L27.3544 50.0584C27.3544 50.0088 27.374 49.9612 27.409 49.9262C27.444 49.8911 27.4915 49.8714 27.5409 49.8714H28.5801C28.6296 49.8714 28.6771 49.8517 28.7121 49.8166C28.747 49.7815 28.7667 49.7339 28.7667 49.6843V48.3898C28.7667 48.3401 28.747 48.2926 28.7121 48.2575C28.6771 48.2224 28.6296 48.2027 28.5801 48.2027H22.9159C22.8664 48.2027 22.8189 48.2224 22.784 48.2575C22.749 48.2926 22.7293 48.3401 22.7293 48.3898V49.8732C22.7293 49.9228 22.749 49.9704 22.784 50.0055C22.8189 50.0406 22.8664 50.0603 22.9159 50.0603H23.8095C23.859 50.0603 23.9065 50.08 23.9415 50.1151C23.9765 50.1502 23.9961 50.1978 23.9961 50.2474V62.2518C23.9961 62.3014 23.9765 62.349 23.9415 62.3841C23.9065 62.4191 23.859 62.4389 23.8095 62.4389H17.8785C17.829 62.4389 17.7816 62.4191 17.7466 62.3841C17.7116 62.349 17.6919 62.3014 17.6919 62.2518V55.3919C17.6919 55.3422 17.7116 55.2947 17.7466 55.2596C17.7816 55.2245 17.829 55.2048 17.8785 55.2048H19.4681C19.5028 55.2038 19.537 55.2126 19.567 55.2301C19.597 55.2476 19.6215 55.2732 19.6378 55.3039L20.4513 56.7724C20.4633 56.7968 20.4804 56.8182 20.5015 56.8353C20.5226 56.8523 20.5471 56.8646 20.5734 56.8712C20.5996 56.8778 20.627 56.8785 20.6536 56.8734C20.6802 56.8683 20.7054 56.8575 20.7274 56.8417L21.4737 56.359C21.5125 56.3327 21.5407 56.2935 21.5534 56.2482C21.566 56.203 21.5622 56.1548 21.5427 56.1121L19.5875 51.9666C19.577 51.9416 19.5612 51.9193 19.5413 51.9011C19.5214 51.8828 19.4977 51.8692 19.472 51.861C19.4463 51.8528 19.4191 51.8503 19.3923 51.8537C19.3656 51.8571 19.3398 51.8662 19.3169 51.8805L18.5557 52.3052C18.5145 52.3265 18.4827 52.3625 18.4665 52.406C18.4503 52.4496 18.4508 52.4977 18.4681 52.5409L18.7722 53.4145C18.7848 53.4441 18.7896 53.4765 18.7861 53.5086C18.7826 53.5406 18.7708 53.5712 18.7521 53.5973C18.7333 53.6235 18.7081 53.6443 18.679 53.6579C18.6498 53.6714 18.6176 53.6771 18.5856 53.6745H17.9923C17.9428 53.6745 17.8954 53.6548 17.8604 53.6197C17.8254 53.5847 17.8057 53.5371 17.8057 53.4875V50.0771C17.8057 50.0275 17.8254 49.9799 17.8604 49.9449C17.8954 49.9098 17.9428 49.8901 17.9923 49.8901L20.2871 49.8714C20.3178 49.8714 20.3481 49.8784 20.3756 49.8921C20.4031 49.9057 20.4271 49.9255 20.4457 49.9499L21.8114 51.8057C21.8409 51.8452 21.8841 51.8722 21.9325 51.8812C21.9809 51.8902 22.0309 51.8806 22.0726 51.8543L22.7797 51.4016C22.8222 51.3763 22.853 51.3351 22.8653 51.287C22.8775 51.239 22.8702 51.188 22.845 51.1453L21.3076 48.2906C21.2917 48.2589 21.2671 48.2324 21.2367 48.2142C21.2063 48.1959 21.1714 48.1868 21.136 48.1877L15.0762 48.2307H12.7161C12.6666 48.2307 12.6192 48.2505 12.5842 48.2855C12.5492 48.3206 12.5295 48.3682 12.5295 48.4178V49.6487C12.5295 49.6984 12.5492 49.7459 12.5842 49.781C12.6192 49.8161 12.6666 49.8358 12.7161 49.8358H14.4456C14.4951 49.8358 14.5425 49.8555 14.5775 49.8906C14.6125 49.9257 14.6322 49.9733 14.6322 50.0229V62.1826C14.6322 62.2322 14.6125 62.2798 14.5775 62.3148C14.5425 62.3499 14.4951 62.3696 14.4456 62.3696H13.3728C13.3234 62.3696 13.2759 62.3893 13.2409 62.4244C13.2059 62.4595 13.1863 62.5071 13.1863 62.5567V63.8101C13.1863 63.8597 13.2059 63.9073 13.2409 63.9424C13.2759 63.9775 13.3234 63.9972 13.3728 63.9972H30.4813C30.7825 64.0003 31.0775 63.9109 31.3264 63.7409C31.3534 63.6985 31.3961 63.6685 31.4451 63.6576C31.494 63.6468 31.5453 63.6558 31.5876 63.6829C31.6299 63.7099 31.6598 63.7527 31.6706 63.8018C31.6815 63.8509 31.6724 63.9024 31.6455 63.9448V66.9379C31.6455 66.9875 31.6258 67.0351 31.5908 67.0702C31.5558 67.1053 31.5084 67.125 31.4589 67.125H29.2201C29.1706 67.125 29.1231 67.1447 29.0881 67.1798C29.0532 67.2149 29.0335 67.2625 29.0335 67.3121V70.0807C29.0335 70.1304 29.0532 70.1779 29.0881 70.213C29.1231 70.2481 29.1706 70.2678 29.2201 70.2678H36.4758C36.5252 70.2678 36.5727 70.2481 36.6077 70.213C36.6427 70.1779 36.6623 70.1304 36.6623 70.0807V67.2185C36.6623 67.1689 36.6427 67.1213 36.6077 67.0863C36.5727 67.0512 36.5252 67.0315 36.4758 67.0315H34.5858C34.5363 67.0315 34.4889 67.0118 34.4539 66.9767C34.4189 66.9416 34.3992 66.894 34.3992 66.8444L34.3078 51.7365C34.3066 51.7111 34.3104 51.6858 34.3193 51.662C34.3281 51.6382 34.3416 51.6165 34.3591 51.5981C34.3765 51.5797 34.3975 51.5651 34.4208 51.5551C34.444 51.5451 34.4691 51.54 34.4944 51.54C34.5358 51.5383 34.5766 51.5504 34.6104 51.5744C34.6441 51.5985 34.669 51.6331 34.681 51.6729L40.849 69.7309C40.8613 69.7703 40.8863 69.8046 40.92 69.8282C40.9538 69.8519 40.9944 69.8638 41.0355 69.8619H41.2575C41.2989 69.8636 41.3397 69.8515 41.3735 69.8275C41.4073 69.8035 41.4321 69.7688 41.4441 69.729L46.974 53.2387C46.986 53.1989 47.0109 53.1643 47.0446 53.1402C47.0784 53.1162 47.1192 53.1041 47.1606 53.1058H47.2576C47.3071 53.1058 47.3546 53.1255 47.3895 53.1606C47.4245 53.1957 47.4442 53.2433 47.4442 53.2929V67.0726C47.4442 67.1222 47.4245 67.1698 47.3895 67.2049C47.3546 67.24 47.3071 67.2597 47.2576 67.2597H45.0878C45.0383 67.2597 44.9909 67.2794 44.9559 67.3145C44.9209 67.3496 44.9012 67.3972 44.9012 67.4468V69.976C44.9012 70.0256 44.9209 70.0732 44.9559 70.1083C44.9909 70.1433 45.0383 70.1631 45.0878 70.1631L108.93 70.3613C108.965 70.361 109 70.3513 109.03 70.3333C109.06 70.3152 109.085 70.2894 109.102 70.2585L112.553 63.8587C112.566 63.8366 112.574 63.812 112.577 63.7866C112.58 63.7611 112.578 63.7353 112.571 63.7107C112.563 63.6862 112.551 63.6634 112.535 63.6438C112.518 63.6242 112.498 63.6082 112.475 63.5968L110.938 62.7681C110.916 62.7553 110.893 62.7468 110.869 62.7432C110.844 62.7395 110.819 62.7408 110.795 62.7469C110.771 62.753 110.749 62.7638 110.729 62.7786C110.709 62.7935 110.693 62.8122 110.68 62.8336C110.214 63.5819 108.169 66.7452 107.027 67.2242C107.003 67.2338 106.977 67.2389 106.951 67.2391ZM58.0078 67.3327H53.3696C53.3202 67.3327 53.2727 67.3129 53.2377 67.2779C53.2027 67.2428 53.1831 67.1952 53.1831 67.1456V43.3912C53.1831 43.3416 53.2027 43.294 53.2377 43.2589C53.2727 43.2238 53.3202 43.2041 53.3696 43.2041H58.0078C58.0572 43.2041 58.1047 43.2238 58.1397 43.2589C58.1747 43.294 58.1943 43.3416 58.1943 43.3912V67.1381C58.1953 67.1633 58.1913 67.1884 58.1823 67.212C58.1734 67.2356 58.1598 67.2571 58.1424 67.2752C58.125 67.2934 58.1041 67.3079 58.0809 67.3177C58.0578 67.3276 58.0329 67.3327 58.0078 67.3327Z" fill="#2D224C"/>
<path d="M7.24783 48.1317C4.65265 48.0644 3.17128 48.0625 2.79815 48.0625C2.7734 48.0625 2.74968 48.0724 2.73218 48.0899C2.71469 48.1074 2.70486 48.1312 2.70486 48.156V49.5984C2.70428 49.6239 2.71339 49.6488 2.73036 49.6679C2.74732 49.687 2.77088 49.6989 2.79628 49.7012C3.05934 49.7256 3.78883 49.8135 3.78883 50.0436V61.9619C3.78908 61.9787 3.78597 61.9954 3.77969 62.0109C3.7734 62.0265 3.76406 62.0406 3.75223 62.0525C3.7404 62.0643 3.72631 62.0737 3.71081 62.08C3.6953 62.0863 3.67869 62.0894 3.66196 62.0892H2.80747C2.78026 62.0892 2.75416 62.1 2.73491 62.1193C2.71567 62.1386 2.70486 62.1648 2.70486 62.192V63.61C2.70488 63.6417 2.71558 63.6724 2.73523 63.6972C2.75488 63.722 2.78231 63.7394 2.81307 63.7466C3.81495 63.9823 11.4512 65.5631 12.9028 59.7826C12.9028 59.7601 12.9028 59.7358 12.9158 59.7115C13.5334 54.6811 13.4233 51.6767 11.2516 49.6975C10.1467 48.7123 8.72622 48.1568 7.24783 48.1317ZM9.79637 60.0407C9.73854 61.44 8.5221 61.9619 7.7553 62.1528C7.68181 62.1703 7.60531 62.1709 7.53156 62.1545C7.4578 62.1381 7.38871 62.1052 7.32946 62.0582C7.27021 62.0112 7.22234 61.9514 7.18947 61.8832C7.15659 61.815 7.13955 61.7402 7.13962 61.6645V50.414C7.13895 50.341 7.1542 50.2687 7.1843 50.2022C7.21441 50.1357 7.25864 50.0765 7.31391 50.029C7.36917 49.9814 7.43414 49.9465 7.50426 49.9267C7.57438 49.907 7.64796 49.9028 7.71985 49.9145C9.10607 50.1521 9.65831 51.5458 9.77212 51.8881C9.78833 51.9351 9.79714 51.9843 9.79824 52.034C9.8057 52.7206 9.87473 58.1214 9.79637 60.0407Z" fill="#2D224C"/>
</svg>
