<svg width="315" height="83" viewBox="0 0 315 83" fill="none" xmlns="http://www.w3.org/2000/svg">
<path fill-rule="evenodd" clip-rule="evenodd" d="M291.226 41.3698C288.399 42.686 287.409 43.1438 285.74 43.9736C283.476 44.9765 281.407 46.3817 279.632 48.1226C278.833 48.9896 278.229 50.0221 277.863 51.1486C277.497 52.2751 277.377 53.4686 277.511 54.6466C277.511 56.43 278.212 58.1403 279.458 59.4013C280.704 60.6624 282.394 61.3708 284.157 61.3708H284.411C285.72 61.4557 287.029 61.222 288.229 60.6892C289.43 60.1565 290.487 59.3404 291.311 58.3092C291.311 58.3092 291.566 57.9372 291.735 58.3092C292.195 59.2606 292.932 60.0458 293.848 60.5578C294.764 61.0698 295.814 61.2837 296.854 61.1705C298.083 61.1817 299.298 60.903 300.402 60.3567C301.507 59.8104 302.47 59.0114 303.217 58.023C303.3 57.8017 303.357 57.5712 303.386 57.3363V54.4177C303.386 54.0743 303.386 53.5593 302.764 53.6451C302.142 53.7309 301.633 54.3318 301.067 54.3318C301.067 54.3318 300.643 54.3318 300.615 54.0171V36.1907C300.723 35.2307 300.605 34.2584 300.271 33.3533C299.937 32.4482 299.396 31.6359 298.692 30.9829C296.265 29.0869 293.275 28.0784 290.208 28.1216C288.304 28.0499 286.405 28.3593 284.619 29.032C282.833 29.7047 281.196 30.7275 279.802 32.0417C279.075 33.2796 278.619 34.6605 278.463 36.0916C278.307 37.5228 278.455 38.9712 278.897 40.3397C279.152 40.9119 279.887 40.54 279.887 40.54L286.843 38.2795C287.003 38.2043 287.128 38.0718 287.196 37.9078C287.264 37.7438 287.27 37.5601 287.211 37.3924C287.103 36.6146 287.037 35.8313 287.013 35.0461C287.013 33.7013 287.635 32.1847 289.388 32.1847C289.608 32.1651 289.829 32.1896 290.038 32.2568C290.248 32.324 290.443 32.4325 290.611 32.5761C290.779 32.7197 290.918 32.8956 291.019 33.0936C291.119 33.2917 291.18 33.5079 291.198 33.7299V41.2553L291.226 41.3698ZM291.226 46.6633V52.9298C291.205 53.2158 291.1 53.4888 290.923 53.7134C290.747 53.9379 290.507 54.1035 290.237 54.1888C289.437 54.4092 288.586 54.3383 287.833 53.9885C287.833 53.9885 286.843 53.3876 286.843 51.2988C286.864 50.248 287.244 49.237 287.918 48.4374C288.642 47.661 289.459 46.9786 290.35 46.4058C290.35 46.4058 291.226 45.7191 291.226 46.6633ZM243.832 54.6466C243.832 56.1631 243.125 56.6209 243.125 56.6209C241.796 57.3649 241.06 56.6209 241.06 57.9086V59.9688C241.06 61.1705 242.022 61.3136 242.672 61.3136H254.182C254.832 61.3136 255.822 61.3136 255.822 59.9688V57.7941C255.822 56.9357 255.2 57.1646 254.182 56.5065C254.182 56.5065 253.475 56.0487 253.475 54.5321V30.4107C253.475 29.9326 253.287 29.4741 252.953 29.136C252.619 28.7979 252.166 28.608 251.693 28.608C251.159 28.5725 250.625 28.6708 250.138 28.8941L242.361 32.1561C241.815 32.4378 241.401 32.9272 241.21 33.5171C241.019 34.107 241.067 34.7494 241.343 35.3036C241.476 35.5793 241.662 35.8252 241.89 36.0267C242.118 36.2282 242.384 36.3813 242.672 36.4768C244.143 37.3066 243.832 38.5942 243.86 41.3412L243.832 54.6466ZM248.583 22.8852C249.701 22.8852 250.795 22.5496 251.725 21.9208C252.655 21.292 253.38 20.3982 253.808 19.3525C254.236 18.3068 254.348 17.1561 254.13 16.046C253.911 14.9359 253.373 13.9162 252.582 13.1159C251.791 12.3155 250.783 11.7705 249.686 11.5497C248.589 11.3289 247.452 11.4422 246.418 11.8753C245.385 12.3085 244.501 13.042 243.88 13.9831C243.259 14.9242 242.927 16.0306 242.927 17.1625V17.4486C242.999 18.9162 243.627 20.2994 244.68 21.3115C245.733 22.3236 247.13 22.8871 248.583 22.8852ZM211.396 49.7536C211.396 53.2445 211.227 57.3077 213.715 57.3077C214.988 57.3077 216.006 55.1902 216.543 53.13C217.056 50.9463 217.302 48.7074 217.278 46.463C217.278 42.1137 216.062 35.7615 213.348 35.7615C212.983 35.789 212.635 35.9225 212.344 36.1459C212.053 36.3693 211.832 36.673 211.707 37.0205C211.449 37.8722 211.344 38.7637 211.396 39.6529V49.7536ZM202.036 58.1661C201.957 58.1174 201.89 58.0506 201.841 57.9711C201.792 57.8916 201.762 57.8016 201.753 57.7083V24.2873C201.753 21.4259 202.036 20.2242 200.566 19.423C200.106 19.2541 199.708 18.9471 199.425 18.5432C199.142 18.1393 198.987 17.6576 198.982 17.1625C198.98 16.7287 199.098 16.303 199.323 15.9337C199.548 15.5644 199.871 15.2665 200.255 15.0737L208.003 11.7258C208.49 11.5025 209.024 11.4042 209.558 11.4397C210.033 11.4396 210.489 11.6287 210.828 11.9659C211.167 12.3032 211.361 12.7617 211.368 13.2424V30.0387C211.382 30.2059 211.455 30.3623 211.575 30.4782C211.695 30.5942 211.853 30.6618 212.018 30.6682C212.117 30.6651 212.213 30.6405 212.301 30.596C212.389 30.5516 212.466 30.4883 212.527 30.4107C213.054 29.6908 213.741 29.106 214.531 28.7035C215.322 28.3009 216.195 28.0918 217.08 28.093C224.065 28.2646 227.374 35.0747 227.374 44.0022C227.374 55.0472 220.05 61.3994 212.952 61.3994C209.068 61.5047 205.25 60.3738 202.036 58.1661ZM175.624 58.1661C175.545 58.1174 175.478 58.0506 175.429 57.9711C175.38 57.8916 175.35 57.8016 175.341 57.7083V24.2873C175.341 21.4259 175.624 20.2242 174.154 19.423C173.689 19.2613 173.286 18.9562 173.002 18.5506C172.718 18.1451 172.567 17.6596 172.57 17.1625C172.568 16.7287 172.686 16.303 172.911 15.9337C173.136 15.5644 173.459 15.2665 173.843 15.0737L181.619 11.7258C182.113 11.5255 182.644 11.4375 183.174 11.4683C183.408 11.4645 183.641 11.5074 183.858 11.5945C184.076 11.6816 184.274 11.8113 184.443 11.976C184.611 12.1408 184.745 12.3374 184.838 12.5547C184.931 12.772 184.981 13.0056 184.984 13.2424V30.0387C184.984 30.2056 185.05 30.3658 185.167 30.4838C185.283 30.6019 185.441 30.6682 185.606 30.6682C185.705 30.6651 185.801 30.6405 185.889 30.596C185.977 30.5516 186.054 30.4883 186.115 30.4107C186.642 29.6908 187.328 29.106 188.119 28.7035C188.91 28.3009 189.783 28.0918 190.668 28.093C197.653 28.2646 200.933 35.0747 200.933 44.0022C200.933 55.0472 193.637 61.3994 186.511 61.3994C182.639 61.4854 178.836 60.3558 175.624 58.1661ZM185.013 49.7536C185.013 53.2445 184.843 57.3077 187.303 57.3077C188.604 57.3077 189.622 55.1902 190.131 53.13C190.667 50.95 190.923 48.7093 190.894 46.463C190.894 42.1137 189.678 35.7615 186.964 35.7615C186.6 35.789 186.251 35.9225 185.96 36.1459C185.669 36.3693 185.448 36.673 185.324 37.0205C185.066 37.8722 184.96 38.7637 185.013 39.6529V49.7536ZM121.047 52.987C120.378 54.9422 119.287 56.7215 117.851 58.1947C115.697 60.3989 112.77 61.6535 109.707 61.6856C102.779 61.6856 97.1514 54.5035 97.1514 44.5173C97.1514 35.3036 103.486 28.2933 110.188 28.2933C111.603 28.2836 113.006 28.5623 114.313 29.1129C115.62 29.6635 116.804 30.4746 117.795 31.498C119.774 34.1268 120.927 37.2971 121.103 40.5972C121.103 42.8291 120.594 42.8005 119.831 42.8005H109.82C107.699 42.8005 107.19 42.5716 107.19 44.5459C107.19 49.9253 109.339 54.1888 113.44 53.9599C116.268 53.7882 117.201 50.7551 118.388 50.7551C118.616 50.7783 118.837 50.8463 119.039 50.9554L120.792 52.4433C120.886 52.4955 120.96 52.5761 121.006 52.6736C121.052 52.7712 121.066 52.8808 121.047 52.987ZM111.149 34.8744C111.121 34.3279 110.905 33.8085 110.538 33.4062C110.172 33.0038 109.677 32.7438 109.141 32.6712C108.067 32.6712 107.501 33.6154 107.247 34.8744C106.997 36.0324 106.846 37.2099 106.794 38.3939C106.794 38.6444 106.893 38.8845 107.068 39.0616C107.243 39.2387 107.48 39.3382 107.727 39.3382H110.386C110.633 39.3382 110.871 39.2387 111.046 39.0616C111.221 38.8845 111.319 38.6444 111.319 38.3939C111.375 37.218 111.318 36.0392 111.149 34.8744ZM41.2731 41.3698C38.4452 42.7146 37.4272 43.1438 35.7871 43.9736C33.5088 44.9794 31.4297 46.3948 29.6506 48.1512C28.8286 49.0257 28.2132 50.0774 27.8508 51.2272C27.4883 52.3771 27.3883 53.5951 27.558 54.7896C27.5506 55.67 27.7155 56.5431 28.0433 57.3586C28.371 58.1741 28.8552 58.9158 29.4678 59.541C30.0803 60.1661 30.8092 60.6624 31.6123 61.001C32.4154 61.3396 33.2769 61.5139 34.1469 61.5139H34.5711C35.8782 61.5893 37.1845 61.3514 38.3835 60.8193C39.5825 60.2873 40.6404 59.4762 41.471 58.4522C41.471 58.4522 41.7256 58.0516 41.8952 58.4522C42.3325 59.4303 43.0609 60.2457 43.9786 60.7843C44.8963 61.323 45.9574 61.5581 47.0136 61.4567C48.27 61.4694 49.5111 61.1773 50.6329 60.6048C51.7547 60.0322 52.7245 59.196 53.4611 58.1661C53.5442 57.9447 53.6012 57.7142 53.6308 57.4794V54.4463C53.6308 54.0743 53.6308 53.5879 53.0087 53.6451C52.3865 53.7023 51.8775 54.3318 51.3402 54.3318C51.3402 54.3318 50.8878 54.3318 50.8595 54.0457V36.1907C50.9356 35.2123 50.7804 34.2297 50.4066 33.3241C50.0329 32.4185 49.4514 31.616 48.7103 30.9829C46.2768 29.0989 43.2908 28.0917 40.2268 28.1216C36.3864 27.9786 32.6459 29.3774 29.8203 32.013C29.0464 33.285 28.5634 34.7161 28.4068 36.2014C28.2503 37.6867 28.424 39.1886 28.9154 40.5972C29.1699 41.1981 29.9052 40.8261 29.9052 40.8261L36.8899 38.5656C37.0008 38.5386 37.1043 38.4869 37.1929 38.4141C37.2814 38.3414 37.3527 38.2495 37.4015 38.1452C37.4503 38.0409 37.4754 37.9268 37.475 37.8114C37.4746 37.696 37.4486 37.5822 37.3989 37.4783C37.3989 36.7343 37.201 35.1606 37.201 35.1606C37.201 33.7871 37.8231 32.2992 39.5764 32.2992C39.7994 32.2796 40.024 32.3048 40.2372 32.3734C40.4505 32.4421 40.6483 32.5527 40.8191 32.699C40.99 32.8453 41.1306 33.0243 41.2327 33.2258C41.3349 33.4273 41.3967 33.6472 41.4145 33.8729V41.2553L41.2731 41.3698ZM41.2731 46.6633V52.9298C41.2615 53.222 41.1598 53.5033 40.9823 53.7342C40.8049 53.9651 40.5605 54.134 40.2834 54.2174C39.4793 54.4148 38.6332 54.3342 37.8797 53.9885C37.8797 53.9885 36.8617 53.3876 36.8617 51.3274C36.8412 50.226 37.2239 49.1559 37.9362 48.3229C38.6607 47.5465 39.4776 46.8641 40.3682 46.2913C40.3682 46.2913 41.2731 45.7477 41.2731 46.6633ZM225.564 57.7941C225.564 56.6209 226.327 57.2504 227.656 56.5065C227.656 56.5065 228.363 56.0487 228.363 54.5321V24.2587C228.363 21.3973 228.646 20.2242 227.176 19.423C226.716 19.2541 226.318 18.9471 226.035 18.5432C225.752 18.1393 225.597 17.6576 225.592 17.1625C225.59 16.7287 225.708 16.303 225.933 15.9337C226.158 15.5644 226.481 15.2665 226.865 15.0737L234.641 11.7258C235.129 11.5025 235.663 11.4042 236.197 11.4397C236.431 11.4359 236.663 11.4788 236.881 11.5659C237.098 11.653 237.297 11.7827 237.465 11.9474C237.633 12.1121 237.767 12.3088 237.86 12.5261C237.953 12.7433 238.003 12.977 238.006 13.2138V54.6466C238.006 56.1631 238.713 56.6209 238.713 56.6209C239.703 57.2791 240.325 57.0501 240.325 57.9086V59.9688C240.325 61.1705 239.335 61.3136 238.713 61.3136H227.176C226.525 61.3136 225.564 61.3136 225.564 59.9974V57.7941ZM174.663 57.7941C174.663 56.9357 174.041 57.1932 173.051 56.5637C173.051 56.5637 172.344 56.3348 172.344 54.5607V30.239C172.348 30.1037 172.325 29.969 172.277 29.8426C172.23 29.7161 172.158 29.6004 172.066 29.5021C171.974 29.4038 171.864 29.3248 171.742 29.2695C171.619 29.2143 171.488 29.184 171.354 29.1803C167.65 29.3806 161.937 30.3534 161.937 30.3534C161.652 30.3678 161.383 30.4908 161.183 30.6978C160.984 30.9048 160.87 31.1805 160.863 31.4694V33.3007C160.865 33.4699 160.907 33.6362 160.986 33.7856C161.064 33.9349 161.177 34.063 161.315 34.1591L162.079 34.7027C163.549 35.5325 163.21 38.5942 163.266 41.3698V53.0156C163.27 53.1285 163.249 53.2408 163.205 53.3446C163.161 53.4484 163.095 53.5412 163.012 53.6165C162.623 54.0445 162.197 54.4371 161.739 54.7896C161.406 55.0475 160.999 55.1882 160.58 55.1902C160.324 55.194 160.069 55.1467 159.831 55.051C159.593 54.9552 159.376 54.813 159.192 54.6323C159.008 54.4516 158.861 54.236 158.76 53.9979C158.658 53.7598 158.604 53.5038 158.6 53.2445V30.3534C158.604 30.2182 158.582 30.0834 158.534 29.957C158.486 29.8306 158.414 29.7149 158.322 29.6166C158.23 29.5182 158.12 29.4392 157.998 29.384C157.876 29.3288 157.744 29.2984 157.611 29.2947C153.878 29.495 148.194 30.4679 148.194 30.4679C147.909 30.4823 147.639 30.6053 147.44 30.8123C147.241 31.0193 147.126 31.2949 147.119 31.5838V33.4151C147.122 33.5844 147.164 33.7507 147.242 33.9C147.321 34.0494 147.434 34.1775 147.572 34.2735L148.335 34.8172C149.806 35.647 149.467 38.7087 149.523 41.4842V55.4478C149.56 57.2062 150.276 58.88 151.519 60.1103C152.761 61.3406 154.43 62.0293 156.169 62.0289C157.009 62.0328 157.84 61.8471 158.6 61.4853C159.874 60.8286 161.053 60.0008 162.107 59.0245C162.197 58.9332 162.319 58.8817 162.446 58.8814C162.576 58.8887 162.699 58.9462 162.788 59.042C162.878 59.1378 162.927 59.2647 162.927 59.3965V61.3994C162.927 61.574 162.996 61.7414 163.118 61.8648C163.24 61.9882 163.405 62.0576 163.577 62.0576C166.781 61.8579 169.971 61.4854 173.136 60.9416C173.758 60.9416 174.747 60.5983 174.747 59.6254L174.663 57.7941ZM132.839 50.1542C132.839 53.6451 132.669 57.7083 135.129 57.7083C136.402 57.7083 137.42 55.5908 137.957 53.5306C138.493 51.3409 138.75 49.0907 138.721 46.835C138.721 42.4857 137.476 36.1334 134.762 36.1334C134.397 36.161 134.049 36.2945 133.758 36.5179C133.467 36.7412 133.246 37.045 133.122 37.3924C132.887 38.2486 132.791 39.1377 132.839 40.0249V50.1542ZM132.839 65.8632C132.839 67.4083 133.546 67.8662 133.546 67.8662C134.535 68.5243 136.006 68.3526 136.006 69.211V71.214C136.006 72.4158 135.044 72.5588 134.394 72.5588H122.008C121.386 72.5588 120.396 72.4158 120.396 71.214V69.211C120.396 68.0379 121.132 68.6387 122.461 67.9234C122.729 67.6582 122.934 67.3352 123.061 66.9784C123.189 66.6217 123.235 66.2405 123.196 65.8632V41.3698C123.196 38.5084 123.45 37.3066 122.008 36.5054C121.018 36.0762 120.396 35.5612 120.396 34.5025C120.406 34.0714 120.529 33.6508 120.753 33.2838C120.977 32.9167 121.293 32.6164 121.669 32.4136L129.474 29.0944C129.961 28.8711 130.495 28.7728 131.029 28.8083C131.454 28.7835 131.872 28.9236 132.197 29.2002C132.523 29.4768 132.732 29.8688 132.782 30.2962C132.782 30.4632 132.848 30.6233 132.964 30.7413C133.081 30.8594 133.239 30.9257 133.404 30.9257C133.501 30.9281 133.596 30.9088 133.684 30.8692C133.772 30.8296 133.851 30.7707 133.913 30.6968C134.518 30.0923 135.24 29.6203 136.033 29.3101C136.826 29 137.673 28.8584 138.523 28.8941C145.508 29.0944 148.788 37.2494 148.788 44.2598C148.788 57.7083 141.04 62.2292 134.366 61.657H133.178C133.178 61.657 132.924 61.657 132.867 61.8V65.8632H132.839ZM79.3359 32.8428C79.3359 34.6455 79.0814 36.0762 80.156 36.0762C80.8227 36.1026 81.4854 35.9593 82.0832 35.6593C82.681 35.3594 83.1949 34.9124 83.5777 34.3594C84.9029 32.263 85.564 29.8072 85.4723 27.3204C85.4723 22.7422 83.7756 18.2498 81.0326 18.2498C79.8732 18.2498 79.3925 18.5645 79.3925 19.4516V32.8428H79.3359ZM80.665 56.6782C81.8244 57.2791 82.7859 56.9357 82.7859 57.7941V59.8829C82.7859 61.0561 81.7961 61.1992 81.1457 61.1992H65.6774C65.027 61.1992 64.0373 61.0561 64.0373 59.8829V57.7941C64.0373 56.6209 64.8008 57.2504 66.1016 56.5351C66.5022 56.272 66.8362 55.9175 67.0769 55.5C67.3175 55.0826 67.4581 54.6139 67.4872 54.1315V23.1714C67.4872 20.31 67.7417 19.1082 66.2995 18.307C65.9847 18.1072 65.6536 17.9349 65.3098 17.792C65.0044 17.7168 64.7385 17.5275 64.5654 17.2622C64.3923 16.9968 64.3249 16.6749 64.3766 16.3613V14.7303C64.3766 13.786 64.6028 13.2996 65.3381 13.2996H81.2306C85.1477 13.0252 89.0396 14.1158 92.2592 16.3899C93.7526 17.4184 95.0085 18.7615 95.9407 20.3271C96.873 21.8928 97.4596 23.6439 97.6604 25.4605C97.6604 30.5251 95.0022 35.7615 91.2129 37.2494C90.9952 37.3354 90.8112 37.4909 90.6887 37.6923C90.5663 37.8937 90.512 38.1299 90.5342 38.3653C90.5428 38.6163 90.6107 38.8616 90.7321 39.0807C91.5611 40.5533 92.307 42.0723 92.9661 43.6303L96.7837 52.8439C97.9997 55.7053 98.2825 56.5065 100.121 57.1646C101.167 57.7083 100.997 58.4236 100.997 58.4236V60.1404C100.997 61.1133 99.9509 61.1705 99.9509 61.1705H90.11C88.7809 61.1705 88.1871 61.4281 87.2822 59.6826C84.393 54.0845 82.1172 48.1836 80.4953 42.0851C80.2691 41.1695 79.7318 41.2839 79.7318 41.2839C79.5612 41.2833 79.3966 41.3478 79.2709 41.4644C79.1451 41.5811 79.0673 41.7414 79.0531 41.9134V54.1315C79.0221 54.6738 79.1612 55.2121 79.4507 55.6695C79.7402 56.1269 80.1652 56.4799 80.665 56.6782ZM12.9946 57.7941C12.9946 56.6209 13.7299 57.2504 15.059 56.5351C15.059 56.5351 15.7659 56.0773 15.7659 54.5321V24.2873C15.7659 21.4259 16.0487 20.2242 14.5782 19.423C14.2863 19.3202 14.0173 19.1601 13.7867 18.9519C13.5561 18.7437 13.3684 18.4914 13.2344 18.2096C13.1004 17.9278 13.0228 17.6219 13.0059 17.3097C12.989 16.9974 13.0332 16.6848 13.136 16.3899C13.3319 15.8204 13.737 15.349 14.2672 15.0737L22.0437 11.7258C22.5372 11.5255 23.0682 11.4375 23.5991 11.4683C23.833 11.4645 24.0654 11.5074 24.283 11.5945C24.5006 11.6816 24.6991 11.8113 24.8671 11.976C25.0352 12.1408 25.1696 12.3374 25.2625 12.5547C25.3555 12.772 25.4052 13.0056 25.4089 13.2424V54.6466C25.4089 56.1917 26.0876 56.6496 26.0876 56.6496C27.0773 57.2791 27.6994 57.0501 27.6994 57.9086V59.9974C27.6994 61.1705 26.7097 61.3136 26.0876 61.3136H14.6065C13.9561 61.3136 12.9946 61.3136 12.9946 59.9974V57.7941ZM273.524 51.7852C273.569 51.6487 273.666 51.5359 273.793 51.4716C273.921 51.4072 274.068 51.3965 274.203 51.4418L276.606 53.2159C276.719 53.4063 276.778 53.6238 276.778 53.8454C276.778 54.067 276.719 54.2845 276.606 54.4749C275.983 56.113 275.018 57.5963 273.779 58.8242C272.813 59.761 271.673 60.496 270.426 60.987C269.179 61.4779 267.849 61.7153 266.511 61.6856C259.583 61.6856 254.012 55.2475 254.634 44.9179C255.256 34.5883 261.082 28.8655 268.236 28.3219C270.397 28.2148 272.522 28.9178 274.203 30.2962C275.052 31.0635 275.741 31.9961 276.227 33.0383C276.712 34.0804 276.986 35.2109 277.031 36.3623C277.053 37.5566 276.608 38.7114 275.792 39.5746C274.976 40.4378 273.856 40.9392 272.676 40.9692C271.305 40.8242 270.044 40.1465 269.158 39.0789C268.272 38.0113 267.83 36.6373 267.925 35.2464C267.886 34.4389 267.653 33.6533 267.246 32.9573C267.17 32.8432 267.07 32.7479 266.952 32.6786C266.835 32.6092 266.703 32.5676 266.568 32.5567C266.381 32.5816 266.202 32.6453 266.042 32.7438C265.881 32.8423 265.742 32.9735 265.634 33.129C264.412 35.3194 263.88 37.8349 264.107 40.3397C264.107 46.7492 264.418 54.4463 269.763 54.4177C270.592 54.4732 271.414 54.2432 272.097 53.7652C272.78 53.2872 273.283 52.5893 273.524 51.7852Z" fill="#2D224C"/>
</svg>
