  <svg width="103" height="103" viewBox="0 0 103 103" fill="none" xmlns="http://www.w3.org/2000/svg">
            <path d="M42.1062 37.9013C42.1062 39.9679 40.791 41.6588 38.3486 41.6588C36.0941 41.6588 34.5911 39.9679 34.5911 38.0851C34.5911 36.0184 36.0941 34.1396 38.3486 34.1396C40.6031 34.1396 42.1062 35.8397 42.1062 37.9013Z" fill="#2D224C" />
            <path d="M42.106 43.5386H34.5898V67.9647H42.106V43.5386Z" fill="#2D224C" />
            <path d="M60.1432 43.9141C56.1967 43.9141 53.9422 46.1686 53.0028 47.6716H52.8149L52.4392 44.4777H45.6797C45.6797 46.5443 45.8665 48.9868 45.8665 51.8049V67.9634H53.3786V54.6272C53.3786 53.8756 53.3786 53.312 53.5665 52.7484C54.1301 51.4332 55.0695 49.7423 57.1402 49.7423C59.7705 49.7383 60.8937 51.9928 60.8937 54.9999V67.9675H68.4088V54.0594C68.4098 47.108 64.8401 43.9141 60.1432 43.9141Z" fill="#2D224C" />
            <path
              d="M72.5012 15.5835H30.4984C22.5207 15.5835 16.0298 22.0745 16.0298 30.0521V72.0549C16.0298 80.0336 22.5207 86.5235 30.4984 86.5235H72.5012C80.4789 86.5235 86.9698 80.0336 86.9698 72.0549V30.0521C86.9698 22.0745 80.4789 15.5835 72.5012 15.5835ZM83.0101 72.0549C83.0077 74.8412 81.8997 77.5127 79.9294 79.4828C77.9591 81.4529 75.2875 82.5606 72.5012 82.5628H30.4984C27.7121 82.5606 25.0405 81.4529 23.0702 79.4828C21.0999 77.5127 19.9919 74.8412 19.9895 72.0549V30.0521C19.9919 27.2658 21.0999 24.5944 23.0702 22.6242C25.0405 20.6541 27.7121 19.5464 30.4984 19.5442H72.5012C75.2875 19.5464 77.9591 20.6541 79.9294 22.6242C81.8997 24.5944 83.0077 27.2658 83.0101 30.0521V72.0549Z"
              fill="#2D224C"
            />
            <path
              d="M72.5012 87.7672H30.4984C21.8346 87.7672 14.7861 80.7218 14.7861 72.0549V30.0521C14.7861 21.3883 21.8315 14.3398 30.4984 14.3398H72.5012C81.165 14.3398 88.2135 21.3852 88.2135 30.0521V72.0549C88.2135 80.7187 81.165 87.7672 72.5012 87.7672ZM30.4984 16.8262C26.9919 16.8302 23.6302 18.225 21.1507 20.7044C18.6712 23.1839 17.2765 26.5456 17.2724 30.0521V72.0549C17.2765 75.5614 18.6712 78.9232 21.1507 81.4026C23.6302 83.8821 26.9919 85.2769 30.4984 85.2809H72.5012C76.0077 85.2769 79.3695 83.8821 81.8489 81.4026C84.3284 78.9232 85.7231 75.5614 85.7272 72.0549V30.0521C85.7231 26.5456 84.3284 23.1839 81.8489 20.7044C79.3695 18.225 76.0077 16.8302 72.5012 16.8262H30.4984ZM72.5012 83.8085H30.4984C27.3824 83.805 24.3951 82.5655 22.192 80.362C19.9888 78.1585 18.7498 75.1709 18.7469 72.0549V30.0521C18.7504 26.9365 19.9896 23.9495 22.1927 21.7464C24.3958 19.5433 27.3828 18.3041 30.4984 18.3006H72.5012C75.6169 18.3041 78.6039 19.5433 80.8069 21.7464C83.01 23.9495 84.2493 26.9365 84.2528 30.0521V72.0549C84.2493 75.1706 83.01 78.1576 80.8069 80.3606C78.6039 82.5637 75.6169 83.803 72.5012 83.8065V83.8085ZM30.4984 20.7869C28.0419 20.7896 25.6869 21.7666 23.9499 23.5036C22.2129 25.2406 21.2359 27.5957 21.2332 30.0521V72.0549C21.2359 74.5114 22.2129 76.8665 23.9499 78.6035C25.6869 80.3404 28.0419 81.3175 30.4984 81.3202H72.5012C74.9577 81.3175 77.3128 80.3404 79.0498 78.6035C80.7867 76.8665 81.7637 74.5114 81.7664 72.0549V30.0521C81.7637 27.5957 80.7867 25.2406 79.0498 23.5036C77.3128 21.7666 74.9577 20.7896 72.5012 20.7869H30.4984Z"
              fill="#2D224C"
            />
          </svg>