<svg width="124" height="53" viewBox="0 0 124 53" fill="none" xmlns="http://www.w3.org/2000/svg">
<path d="M63.8575 17.1194V19.0763H50.9448C51.4421 18.6272 51.6907 17.9535 51.6907 16.6702V3.30038C51.6907 2.02515 51.4421 1.35145 50.9448 0.894287H63.5848V2.87531C63.1357 2.40211 62.5582 2.17754 61.259 2.17754H57.0403V8.49754H59.9597C60.7663 8.57484 61.5741 8.36152 62.2374 7.89602V10.3502C61.5741 9.88474 60.7663 9.67142 59.9597 9.74872H57.0403V17.8172H61.5156C62.7828 17.8172 63.3843 17.5926 63.8335 17.1194H63.8575Z" fill="white"/>
<path d="M74.2843 19.0764L74.0838 16.927C73.6562 17.6722 73.0302 18.2841 72.2755 18.6948C71.5208 19.1054 70.6669 19.2986 69.809 19.2529C67.1061 19.2529 64.9326 17.1756 64.9326 12.6522C64.9326 8.1287 67.4831 6.0354 70.0095 6.0354C70.8336 6.02315 71.646 6.23163 72.3625 6.63919C73.0789 7.04676 73.6732 7.63858 74.0838 8.35326V3.17214C74.1619 2.37543 73.9482 1.57745 73.4823 0.926461C74.6773 0.854278 77.6047 0.653768 79.3772 0.429199V16.8227C79.3129 17.6255 79.5376 18.4248 80.0108 19.0764H74.2843ZM74.0838 15.3791V9.92525C73.9667 9.56711 73.739 9.25536 73.4334 9.03485C73.1279 8.81434 72.7603 8.69645 72.3835 8.69814C71.2045 8.69814 70.611 9.54829 70.5869 12.7083C70.5629 15.8683 71.2045 16.7185 72.3835 16.7185C72.7726 16.714 73.1495 16.5821 73.4565 16.3432C73.7636 16.1042 73.9839 15.7712 74.0838 15.3951V15.3791Z" fill="white"/>
<path d="M90.1001 19.0763L89.9718 16.9269C89.5893 17.6715 88.9977 18.2883 88.2697 18.7014C87.5416 19.1146 86.7088 19.3062 85.8734 19.2528C83.0502 19.2528 81.8632 17.6487 81.8632 14.6571V8.52159C81.91 8.19597 81.88 7.86392 81.7755 7.55198C81.6711 7.24004 81.4951 6.95685 81.2617 6.72504C83.0823 6.64484 85.2077 6.42027 87.1567 6.22778V14.8175C87.1567 15.8201 87.4053 16.6462 88.4319 16.6462C88.7089 16.6373 88.9773 16.5475 89.2039 16.3879C89.4305 16.2283 89.6055 16.0058 89.7071 15.7479V8.52961C89.7539 8.20399 89.7238 7.87194 89.6194 7.56C89.515 7.24806 89.339 6.96487 89.1056 6.73306C90.9342 6.65286 93.0596 6.42829 95.0085 6.2358V16.8226C94.933 17.6255 95.1431 18.4293 95.602 19.0924L90.1001 19.0763Z" fill="white"/>
<path d="M61.5641 22.9983L60.9866 24.4981C60.0694 23.7819 58.9421 23.3873 57.7785 23.3753C56.3027 23.3753 55.629 23.7522 55.629 24.6264C55.629 26.2947 62.2057 26.9684 62.2057 30.9224C62.2057 33.922 59.575 35.2935 55.3804 35.2935C53.685 35.3896 51.9943 35.0354 50.48 34.2669L51.0334 32.7911C52.0904 33.5475 53.3588 33.9516 54.6586 33.9461C56.2626 33.9461 56.9764 33.4969 56.9764 32.5425C56.9764 30.3209 50.5602 30.6738 50.48 26.3749C50.48 23.9688 52.3567 22.0519 57.1769 22.0519C58.6938 22.0133 60.198 22.3377 61.5641 22.9983Z" fill="white"/>
<path d="M77.6045 28.7008C77.6045 32.2778 74.9338 35.3255 70.3863 35.3255C65.5741 35.3255 63.168 32.5024 63.168 28.7008C63.168 25.1317 65.8708 22.084 70.3863 22.084C75.1343 22.0519 77.6045 24.8751 77.6045 28.7008ZM68.7822 28.7008C68.7822 33.3285 69.2073 34.315 70.3863 34.315C71.5652 34.315 71.9903 33.3445 71.9903 28.7008C71.9903 24.057 71.5893 23.1347 70.3863 23.1347C69.1832 23.1347 68.7822 24.049 68.7822 28.7008Z" fill="white"/>
<path d="M100.92 35.117H107.44C106.975 34.4568 106.761 33.6515 106.839 32.8473V27.2331C106.839 24.2094 105.82 22.0359 102.468 22.0359C101.683 22.0034 100.905 22.1867 100.218 22.5657C99.5309 22.9446 98.9607 23.5049 98.5697 24.1853V22.2204C97.118 22.4048 95.0728 22.7497 93.6773 22.9582C91.846 23.2017 89.9965 23.2796 88.1513 23.1908C87.0749 22.5232 85.8124 22.2195 84.5502 22.3246C81.1816 22.3246 78.936 24.3457 78.936 26.824C78.9392 27.5649 79.1401 28.2915 79.518 28.9287C79.8958 29.566 80.4369 30.0909 81.0854 30.4492C80.5393 30.7652 80.0914 31.2262 79.7913 31.7811C79.4912 32.336 79.3506 32.9632 79.3851 33.5932C79.374 34.008 79.4456 34.421 79.5957 34.8079C79.7458 35.1948 79.9714 35.548 80.2593 35.8469C79.8583 35.9849 79.5094 36.2428 79.2598 36.5856C79.0102 36.9285 78.8719 37.3397 78.8638 37.7637C78.8638 39.3678 81.6067 40.1698 84.7828 40.1698C88.5603 40.1698 91.4797 38.7182 91.4797 36.1597C91.4797 33.906 89.603 32.5345 84.8068 32.4623L82.4007 32.4142C81.6548 32.4142 81.4223 32.0854 81.4223 31.7325C81.4421 31.554 81.5111 31.3845 81.6215 31.2429C81.732 31.1013 81.8796 30.9931 82.0478 30.9304C82.8716 31.1967 83.7326 31.3294 84.5983 31.3234C88.023 31.3234 90.2687 29.3023 90.2687 26.8561C90.306 25.7871 89.9198 24.7465 89.1939 23.9608L93.4928 24.1693C93.5485 24.433 93.5754 24.7019 93.573 24.9713V32.8713C93.6505 33.6755 93.4371 34.4808 92.9715 35.1411H99.468C99.0024 34.4808 98.7889 33.6755 98.8664 32.8713V25.3483C99.0219 25.1195 99.2373 24.9378 99.4891 24.8232C99.7409 24.7086 100.019 24.6655 100.294 24.6986C101.321 24.6986 101.569 25.5007 101.569 26.4952V32.8473C101.633 33.6574 101.402 34.4633 100.92 35.117ZM81.4784 36.3923L86.2906 36.6168C87.8946 36.689 88.5122 36.9938 88.5122 37.5712C88.5122 38.1487 87.6701 39.1753 84.7667 39.1753C83.3471 39.1753 81.318 38.6219 81.318 37.4028C81.2984 37.0584 81.3531 36.7137 81.4784 36.3923ZM84.5502 30.3931C83.6519 30.3931 83.299 29.7434 83.3311 26.824C83.3632 23.9046 83.6519 23.2229 84.5502 23.2229C85.4485 23.2229 85.8013 23.8485 85.8013 26.824C85.8013 29.7996 85.5046 30.3931 84.5502 30.3931Z" fill="white"/>
<path d="M123.136 28.7008C123.136 32.2778 120.457 35.3255 115.918 35.3255C111.105 35.3255 108.699 32.5024 108.699 28.7008C108.699 25.1317 111.394 22.084 115.918 22.084C120.658 22.0519 123.136 24.8751 123.136 28.7008ZM114.313 28.7008C114.313 33.3285 114.739 34.315 115.918 34.315C117.096 34.315 117.522 33.3445 117.522 28.7008C117.522 24.057 117.121 23.1347 115.918 23.1347C114.714 23.1347 114.338 24.049 114.313 28.7008Z" fill="white"/>
<path d="M0 0.9104H45.0581V1.56005C45.0581 8.68209 45.1303 15.7961 45.0581 22.9101C44.9058 34.9406 39.5081 43.763 28.9614 49.5296C27.1006 50.5401 25.2159 51.4945 23.3471 52.4891C23.1033 52.6298 22.8267 52.704 22.5451 52.704C22.2635 52.704 21.9869 52.6298 21.7431 52.4891C19.6017 51.3502 17.4281 50.2754 15.3268 49.0884C11.443 47.0159 8.08655 44.0799 5.51561 40.5065C2.94468 36.933 1.22785 32.8174 0.49726 28.4762C0.191221 26.7447 0.0409062 24.9893 0.0481215 23.2309C-4.27255e-07 16.0127 0.0481215 8.79437 0.0481215 1.57609L0 0.9104ZM2.34995 3.23629V3.76564C2.34995 10.2541 2.34995 16.7425 2.34995 23.2309C2.35348 24.6135 2.45802 25.994 2.66274 27.3614C3.18763 31.1777 4.54803 34.8311 6.64694 38.0613C8.74585 41.2915 11.5316 44.0188 14.8055 46.0487C17.2116 47.5806 19.7701 48.7756 22.2724 50.107C22.365 50.1465 22.4645 50.1669 22.5652 50.1669C22.6658 50.1669 22.7654 50.1465 22.8579 50.107C24.0128 49.5215 25.1357 48.8879 26.2986 48.3105C29.75 46.7211 32.871 44.4953 35.4979 41.7498C40.064 36.9185 42.629 30.536 42.6761 23.8886C42.7723 17.1836 42.6761 10.4786 42.6761 3.77365C42.6761 3.60523 42.6761 3.42878 42.6761 3.23629H2.34995Z" fill="white"/>
<path d="M25.5685 15.5234H18.4385V33.4488H25.5685V15.5234Z" fill="white"/>
<path d="M18.3244 22.1327L13.4604 20.395L9.38056 31.8148L14.2445 33.5525L18.3244 22.1327Z" fill="white"/>
<path d="M27.8167 11.5999L24.6558 12.7642L32.2428 33.3629L35.4037 32.1987L27.8167 11.5999Z" fill="white"/>
</svg>
