<svg width="124" height="53" viewBox="0 0 124 53" fill="none" xmlns="http://www.w3.org/2000/svg">
<path d="M63.858 17.1196V19.0766H50.9453C51.4426 18.6274 51.6912 17.9537 51.6912 16.6705V3.30063C51.6912 2.0254 51.4426 1.35169 50.9453 0.894531H63.5853V2.87555C63.1362 2.40235 62.5587 2.17778 61.2594 2.17778H57.0408V8.49779H59.9601C60.7668 8.57508 61.5746 8.36176 62.2379 7.89626V10.3505C61.5746 9.88498 60.7668 9.67167 59.9601 9.74896H57.0408V17.8174H61.5161C62.7833 17.8174 63.3848 17.5928 63.834 17.1196H63.858Z" fill="white"/>
<path d="M74.2843 19.0764L74.0838 16.927C73.6562 17.6722 73.0302 18.2841 72.2755 18.6948C71.5208 19.1054 70.6669 19.2986 69.809 19.2529C67.1061 19.2529 64.9326 17.1756 64.9326 12.6522C64.9326 8.1287 67.4831 6.0354 70.0095 6.0354C70.8336 6.02315 71.646 6.23163 72.3625 6.63919C73.0789 7.04676 73.6732 7.63858 74.0838 8.35326V3.17214C74.1619 2.37543 73.9482 1.57745 73.4823 0.926461C74.6773 0.854278 77.6047 0.653768 79.3772 0.429199V16.8227C79.3129 17.6255 79.5376 18.4248 80.0108 19.0764H74.2843ZM74.0838 15.3791V9.92525C73.9667 9.56711 73.739 9.25536 73.4334 9.03485C73.1279 8.81434 72.7603 8.69645 72.3835 8.69814C71.2045 8.69814 70.611 9.54829 70.5869 12.7083C70.5629 15.8683 71.2045 16.7185 72.3835 16.7185C72.7726 16.714 73.1495 16.5821 73.4565 16.3432C73.7636 16.1042 73.9839 15.7712 74.0838 15.3951V15.3791Z" fill="white"/>
<path d="M90.1001 19.0766L89.9718 16.9271C89.5893 17.6717 88.9977 18.2885 88.2697 18.7017C87.5416 19.1148 86.7088 19.3065 85.8734 19.253C83.0502 19.253 81.8632 17.649 81.8632 14.6574V8.52183C81.91 8.19621 81.88 7.86417 81.7755 7.55223C81.6711 7.24028 81.4951 6.95709 81.2617 6.72528C83.0823 6.64508 85.2077 6.42051 87.1567 6.22803V14.8178C87.1567 15.8203 87.4053 16.6464 88.4319 16.6464C88.7089 16.6375 88.9773 16.5477 89.2039 16.3881C89.4305 16.2285 89.6055 16.006 89.7071 15.7481V8.52985C89.7539 8.20423 89.7238 7.87219 89.6194 7.56025C89.515 7.24831 89.339 6.96512 89.1056 6.73331C90.9342 6.6531 93.0596 6.42853 95.0085 6.23604V16.8229C94.933 17.6257 95.1431 18.4295 95.602 19.0926L90.1001 19.0766Z" fill="white"/>
<path d="M61.5636 22.9983L60.9861 24.4981C60.0689 23.7819 58.9416 23.3873 57.778 23.3753C56.3022 23.3753 55.6285 23.7522 55.6285 24.6264C55.6285 26.2947 62.2052 26.9684 62.2052 30.9224C62.2052 33.922 59.5745 35.2935 55.3799 35.2935C53.6845 35.3896 51.9938 35.0354 50.4795 34.2669L51.0329 32.7911C52.0899 33.5475 53.3583 33.9516 54.6581 33.9461C56.2621 33.9461 56.9759 33.4969 56.9759 32.5425C56.9759 30.3209 50.5597 30.6738 50.4795 26.3749C50.4795 23.9688 52.3562 22.0519 57.1765 22.0519C58.6933 22.0133 60.1975 22.3377 61.5636 22.9983Z" fill="white"/>
<path d="M77.6045 28.701C77.6045 32.2781 74.9338 35.3258 70.3863 35.3258C65.5741 35.3258 63.168 32.5026 63.168 28.701C63.168 25.132 65.8708 22.0843 70.3863 22.0843C75.1343 22.0522 77.6045 24.8753 77.6045 28.701ZM68.7822 28.701C68.7822 33.3287 69.2073 34.3152 70.3863 34.3152C71.5652 34.3152 71.9903 33.3448 71.9903 28.701C71.9903 24.0573 71.5893 23.1349 70.3863 23.1349C69.1832 23.1349 68.7822 24.0492 68.7822 28.701Z" fill="white"/>
<path d="M100.919 35.117H107.44C106.974 34.4568 106.761 33.6515 106.838 32.8473V27.2331C106.838 24.2094 105.82 22.0359 102.467 22.0359C101.683 22.0034 100.905 22.1867 100.218 22.5657C99.5304 22.9446 98.9602 23.5049 98.5692 24.1853V22.2204C97.1175 22.4048 95.0723 22.7497 93.6768 22.9582C91.8455 23.2017 89.9961 23.2796 88.1508 23.1908C87.0744 22.5232 85.8119 22.2195 84.5497 22.3246C81.1812 22.3246 78.9355 24.3457 78.9355 26.824C78.9387 27.5649 79.1396 28.2915 79.5175 28.9287C79.8953 29.566 80.4364 30.0909 81.0849 30.4492C80.5389 30.7652 80.091 31.2262 79.7908 31.7811C79.4907 32.336 79.3501 32.9632 79.3846 33.5932C79.3735 34.008 79.4451 34.421 79.5952 34.8079C79.7453 35.1948 79.9709 35.548 80.2588 35.8469C79.8578 35.9849 79.5089 36.2428 79.2593 36.5856C79.0097 36.9285 78.8714 37.3397 78.8633 37.7637C78.8633 39.3678 81.6062 40.1698 84.7823 40.1698C88.5598 40.1698 91.4792 38.7182 91.4792 36.1597C91.4792 33.906 89.6025 32.5345 84.8063 32.4623L82.4002 32.4142C81.6544 32.4142 81.4218 32.0854 81.4218 31.7325C81.4416 31.554 81.5106 31.3845 81.6211 31.2429C81.7315 31.1013 81.8791 30.9931 82.0473 30.9304C82.8711 31.1967 83.7321 31.3294 84.5978 31.3234C88.0225 31.3234 90.2682 29.3023 90.2682 26.8561C90.3055 25.7871 89.9193 24.7465 89.1934 23.9608L93.4923 24.1693C93.548 24.433 93.5749 24.7019 93.5725 24.9713V32.8713C93.65 33.6755 93.4366 34.4808 92.971 35.1411H99.4675C99.0019 34.4808 98.7885 33.6755 98.8659 32.8713V25.3483C99.0214 25.1195 99.2368 24.9378 99.4886 24.8232C99.7404 24.7086 100.019 24.6655 100.294 24.6986C101.32 24.6986 101.569 25.5007 101.569 26.4952V32.8473C101.632 33.6574 101.402 34.4633 100.919 35.117ZM81.4779 36.3923L86.2901 36.6168C87.8942 36.689 88.5117 36.9938 88.5117 37.5712C88.5117 38.1487 87.6696 39.1753 84.7662 39.1753C83.3466 39.1753 81.3175 38.6219 81.3175 37.4028C81.2979 37.0584 81.3526 36.7137 81.4779 36.3923ZM84.5497 30.3931C83.6514 30.3931 83.2985 29.7434 83.3306 26.824C83.3627 23.9046 83.6514 23.2229 84.5497 23.2229C85.448 23.2229 85.8009 23.8485 85.8009 26.824C85.8009 29.7996 85.5041 30.3931 84.5497 30.3931Z" fill="white"/>
<path d="M123.136 28.701C123.136 32.2781 120.457 35.3258 115.918 35.3258C111.105 35.3258 108.699 32.5026 108.699 28.701C108.699 25.132 111.394 22.0843 115.918 22.0843C120.658 22.0522 123.136 24.8753 123.136 28.701ZM114.313 28.701C114.313 33.3287 114.739 34.3152 115.918 34.3152C117.096 34.3152 117.522 33.3448 117.522 28.701C117.522 24.0573 117.121 23.1349 115.918 23.1349C114.714 23.1349 114.338 24.0492 114.313 28.701Z" fill="white"/>
<path d="M0 0.910645H45.0581V1.56029C45.0581 8.68233 45.1303 15.7964 45.0581 22.9104C44.9058 34.9408 39.5081 43.7632 28.9614 49.5298C27.1006 50.5404 25.2159 51.4948 23.3471 52.4893C23.1033 52.6301 22.8267 52.7042 22.5451 52.7042C22.2635 52.7042 21.9869 52.6301 21.7431 52.4893C19.6017 51.3504 17.4281 50.2757 15.3268 49.0887C11.443 47.0161 8.08655 44.0801 5.51561 40.5067C2.94468 36.9333 1.22785 32.8176 0.49726 28.4765C0.191221 26.745 0.0409062 24.9895 0.0481215 23.2312C-4.27255e-07 16.0129 0.0481215 8.79462 0.0481215 1.57633L0 0.910645ZM2.34995 3.23654V3.76588C2.34995 10.2543 2.34995 16.7427 2.34995 23.2312C2.35348 24.6138 2.45802 25.9943 2.66274 27.3616C3.18763 31.1779 4.54803 34.8314 6.64694 38.0615C8.74585 41.2917 11.5316 44.019 14.8055 46.049C17.2116 47.5809 19.7701 48.7759 22.2724 50.1073C22.365 50.1468 22.4645 50.1671 22.5652 50.1671C22.6658 50.1671 22.7654 50.1468 22.8579 50.1073C24.0128 49.5218 25.1357 48.8882 26.2986 48.3107C29.75 46.7213 32.871 44.4956 35.4979 41.7501C40.064 36.9188 42.629 30.5363 42.6761 23.8889C42.7723 17.1839 42.6761 10.4789 42.6761 3.7739C42.6761 3.60547 42.6761 3.42902 42.6761 3.23654H2.34995Z" fill="white"/>
<path d="M25.5685 15.5234H18.4385V33.4488H25.5685V15.5234Z" fill="white"/>
<path d="M18.3239 22.1327L13.46 20.395L9.38007 31.8148L14.2441 33.5525L18.3239 22.1327Z" fill="white"/>
<path d="M27.8162 11.5999L24.6553 12.7642L32.2423 33.3629L35.4033 32.1987L27.8162 11.5999Z" fill="white"/>
</svg>
