<svg width="27" height="41" viewBox="0 0 27 41" fill="none" xmlns="http://www.w3.org/2000/svg">
<path d="M13.5002 28.1313C17.5255 28.1313 20.7885 24.7301 20.7885 20.5344V7.87281C20.7885 3.67709 17.5255 0.275879 13.5002 0.275879C9.47487 0.275879 6.21181 3.67709 6.21181 7.87281V20.5344C6.21181 24.7301 9.47487 28.1313 13.5002 28.1313ZM25.6474 15.4697H24.4327C23.7616 15.4697 23.218 16.0364 23.218 16.7359V20.5344C23.218 26.4536 18.3219 31.2033 12.5291 30.6145C7.48044 30.101 3.78236 25.3703 3.78236 20.0833V16.7359C3.78236 16.0364 3.23877 15.4697 2.56764 15.4697H1.35291C0.681773 15.4697 0.138184 16.0364 0.138184 16.7359V19.914C0.138184 27.0076 4.99481 33.3312 11.6781 34.2919V36.9944H7.42654C6.7554 36.9944 6.21181 37.561 6.21181 38.2605V39.5267C6.21181 40.2263 6.7554 40.7929 7.42654 40.7929H19.5738C20.2449 40.7929 20.7885 40.2263 20.7885 39.5267V38.2605C20.7885 37.561 20.2449 36.9944 19.5738 36.9944H15.3223V34.322C21.8294 33.3914 26.8622 27.5694 26.8622 20.5344V16.7359C26.8622 16.0364 26.3186 15.4697 25.6474 15.4697Z" fill="white"/>
</svg>
