<svg width="102" height="77" viewBox="0 0 102 77" fill="none" xmlns="http://www.w3.org/2000/svg">
<path d="M70.6243 15.3905V1.85791L39.4365 1.93971V15.2087H47.576V43.1464H62.4401V15.3905H70.6243Z" fill="#2D224C"/>
<path d="M87.8075 1.89453H72.9524V43.1466H100.12V30.2866H87.8075V1.89453Z" fill="#2D224C"/>
<path d="M29.9002 27.1963C31.3429 27.0881 32.7182 26.5329 33.84 25.6058C36.5263 23.6155 37.7352 20.2982 37.6456 15.7086C37.6038 10.8009 35.7563 7.12011 32.1029 4.66625C29.6731 3.02322 26.829 2.12409 23.9097 2.07606L2.86719 1.8125V43.1918H17.2746V30.0137L23.9456 43.1918H41.2184L29.9002 27.1963ZM17.3104 20.1619V13.7092L20.3101 13.8909C22.2801 14.2545 23.3098 15.3451 23.3098 16.981C23.3098 19.6166 21.2951 20.6618 17.3104 20.1619Z" fill="#2D224C"/>
<path d="M15.4031 49.6812L3.13574 49.8629V57.4517H6.71745V73.7108H15.4031V49.6812Z" fill="#2D224C"/>
<path d="M40.8601 55.0888C39.0693 51.2262 35.7204 49.2268 30.7955 49.1359C25.8707 49.045 22.468 50.9536 20.5429 54.9525H20.4623C19.5406 56.7805 19.0647 58.8064 19.0744 60.8599V62.9502C19.1333 64.5036 19.4355 66.0375 19.9698 67.4944C21.6711 71.8932 25.208 74.1653 30.5806 74.2107C35.9532 74.2562 39.4454 72.075 41.0929 67.5853C41.6308 66.098 41.933 64.5336 41.9884 62.9502V60.8599C42.0651 58.8729 41.6785 56.8956 40.8601 55.0888ZM33.7952 61.7687C33.8464 63.0714 33.5361 64.3625 32.8998 65.495C32.7127 65.9534 32.396 66.3452 31.9895 66.6208C31.5831 66.8965 31.1053 67.0437 30.6164 67.0437C30.1276 67.0437 29.6498 66.8965 29.2433 66.6208C28.8369 66.3452 28.5201 65.9534 28.3331 65.495C27.6864 64.3711 27.3456 63.093 27.3456 61.7915C27.3456 60.4899 27.6864 59.2118 28.3331 58.088C28.5774 57.4603 29.0573 56.9569 29.6673 56.6883C30.2742 56.4355 30.9551 56.437 31.5609 56.6925C32.1667 56.948 32.6481 57.4367 32.8998 58.0516C33.5191 59.1579 33.8288 60.415 33.7952 61.6869V61.7687Z" fill="#2D224C"/>
<path d="M65.3413 73.7107V66.2673L56.4407 67.1761C57.9574 66.7304 59.3935 66.04 60.694 65.1312C63.5057 63.2227 64.9383 60.9506 64.9383 58.2695C64.9383 52.2712 61.4551 49.1812 54.426 49.1812C50.128 49.1812 47.0387 50.8625 45.2031 54.2252C44.3118 55.7576 43.8102 57.491 43.7436 59.2692H52.2054C52.1597 58.8103 52.2054 58.3467 52.3397 57.906C52.4813 57.467 52.7683 57.0914 53.1519 56.8429C53.5355 56.5944 53.992 56.4883 54.4439 56.5427C55.6528 56.5427 56.3691 56.9517 56.593 57.8151C56.6926 58.163 56.6907 58.5329 56.5874 58.8797C56.4841 59.2265 56.2838 59.5355 56.0109 59.7691L41.6841 73.7561L65.3413 73.7107Z" fill="#2D224C"/>
<path d="M77.0714 70.2118C77.0766 69.659 76.9537 69.1127 76.7126 68.617C76.4715 68.1213 76.119 67.69 75.6834 67.3581C74.6922 66.593 73.4813 66.1787 72.236 66.1787C70.9908 66.1787 69.7798 66.593 68.7886 67.3581C68.3475 67.6877 67.9882 68.1174 67.7395 68.6128C67.4907 69.1083 67.3594 69.6558 67.356 70.2118C67.3634 70.7748 67.4961 71.3289 67.7442 71.8325C67.9922 72.3361 68.3493 72.7763 68.7886 73.1201C69.7798 73.8852 70.9908 74.2995 72.236 74.2995C73.4813 74.2995 74.6922 73.8852 75.6834 73.1201C76.12 72.7768 76.4725 72.3356 76.7133 71.8311C76.954 71.3266 77.0766 70.7724 77.0714 70.2118Z" fill="#2D224C"/>
<path d="M93.9861 57.9517C92.5879 57.8647 91.1868 58.0656 89.8671 58.5424L88.9269 59.2241L89.6433 56.2703H99.8959V49.4995H83.5633L81.6381 63.7228L84.6736 63.1321C86.3431 62.8233 88.0495 62.7773 89.7328 62.9957C90.2709 63.0495 90.7856 63.2457 91.2256 63.5647C91.6656 63.8836 92.0154 64.3142 92.24 64.8134C92.3962 65.2373 92.391 65.7051 92.2254 66.1253C92.0598 66.5455 91.7457 66.8879 91.3446 67.0855C90.0462 67.8126 86.6883 67.4036 81.3695 65.8586L80.3845 72.2204L83.9662 73.4019C86.6448 74.1392 89.4289 74.4006 92.1952 74.1744C94.8479 74.0222 97.3444 72.8527 99.1796 70.9026C99.9196 70.1619 100.507 69.2788 100.906 68.305C101.306 67.3313 101.511 66.2864 101.508 65.2315C101.516 64.2783 101.33 63.3337 100.96 62.4576C100.59 61.5815 100.045 60.7929 99.3586 60.142C97.9187 58.7228 95.9932 57.9247 93.9861 57.9153V57.9517Z" fill="#2D224C"/>
</svg>
