<svg width="103" height="103" viewBox="0 0 103 103" fill="none" xmlns="http://www.w3.org/2000/svg">
            <path
              d="M72.9485 15.5835H30.9447C22.967 15.5835 16.4761 22.0734 16.4761 30.0521V72.0549C16.4761 80.0336 22.967 86.5235 30.9447 86.5235H72.9485C80.9262 86.5235 87.4161 80.0336 87.4161 72.0549V30.0521C87.4161 22.0734 80.9262 15.5835 72.9485 15.5835ZM83.4554 72.0549C83.4529 74.8409 82.3452 77.512 80.3754 79.4821C78.4055 81.4521 75.7345 82.5601 72.9485 82.5628H30.9447C28.1586 82.5604 25.4873 81.4525 23.5172 79.4824C21.5471 77.5123 20.4392 74.841 20.4368 72.0549V30.0521C20.4392 27.266 21.5471 24.5947 23.5172 22.6246C25.4873 20.6545 28.1586 19.5467 30.9447 19.5442H72.9485C75.7345 19.5469 78.4055 20.6549 80.3754 22.625C82.3452 24.595 83.4529 27.2662 83.4554 30.0521V72.0549Z"
              fill="#2D224C"
            />
            <path
              d="M72.9485 87.7672H30.9447C22.2809 87.7672 15.2324 80.7218 15.2324 72.0549V30.0521C15.2324 21.3883 22.2778 14.3398 30.9447 14.3398H72.9485C81.6113 14.3398 88.6598 21.3852 88.6598 30.0521V72.0549C88.6598 80.7187 81.6113 87.7672 72.9485 87.7672ZM30.9447 16.8262C27.4382 16.8302 24.0765 18.225 21.597 20.7044C19.1175 23.1839 17.7228 26.5456 17.7187 30.0521V72.0549C17.7228 75.5614 19.1175 78.9232 21.597 81.4026C24.0765 83.8821 27.4382 85.2769 30.9447 85.2809H72.9485C80.24 85.2809 86.1735 79.3474 86.1735 72.0549V30.0521C86.1735 22.7596 80.24 16.8262 72.9485 16.8262H30.9447ZM72.9485 83.8085H30.9447C27.8287 83.805 24.8414 82.5655 22.6383 80.362C20.4351 78.1585 19.1961 75.1709 19.1932 72.0549V30.0521C19.1967 26.9365 20.4359 23.9495 22.639 21.7464C24.8421 19.5433 27.8291 18.3041 30.9447 18.3006H72.9485C76.064 18.3044 79.0507 19.5437 81.2536 21.7468C83.4564 23.9498 84.6955 26.9367 84.6991 30.0521V72.0549C84.6955 75.1704 83.4564 78.1572 81.2536 80.3603C79.0507 82.5633 76.064 83.8027 72.9485 83.8065V83.8085ZM30.9447 20.7869C28.4882 20.7896 26.1332 21.7666 24.3962 23.5036C22.6592 25.2406 21.6822 27.5957 21.6795 30.0521V72.0549C21.6822 74.5114 22.6592 76.8665 24.3962 78.6035C26.1332 80.3404 28.4882 81.3175 30.9447 81.3202H72.9485C75.4049 81.3175 77.7599 80.3404 79.4967 78.6034C81.2335 76.8664 82.2103 74.5113 82.2127 72.0549V30.0521C82.2103 27.5957 81.2335 25.2407 79.4967 23.5037C77.7599 21.7667 75.4049 20.7896 72.9485 20.7869H30.9447Z"
              fill="#2D224C"
            />
            <path
              d="M70.2929 46.9614C69.9427 46.9951 69.5904 47.0135 69.2381 47.0145C67.3368 47.015 65.4653 46.5419 63.7926 45.6379C62.1199 44.7339 60.6987 43.4275 59.6574 41.8366V59.4685C59.6574 62.046 58.8931 64.5656 57.4611 66.7087C56.0292 68.8518 53.9938 70.5221 51.6126 71.5085C49.2313 72.4948 46.611 72.7529 44.0831 72.2501C41.5551 71.7472 39.233 70.506 37.4105 68.6835C35.5879 66.8609 34.3468 64.5389 33.8439 62.0109C33.3411 59.483 33.5992 56.8627 34.5855 54.4814C35.5719 52.1001 37.2422 50.0648 39.3853 48.6328C41.5284 47.2009 44.048 46.4366 46.6255 46.4366V46.4366C46.8971 46.4366 47.1636 46.4611 47.4311 46.4784V52.9C47.1644 52.8571 46.8954 52.8301 46.6255 52.8193C45.752 52.8193 44.8871 52.9913 44.0801 53.3256C43.2732 53.6598 42.5399 54.1498 41.9223 54.7674C41.3047 55.385 40.8148 56.1183 40.4805 56.9252C40.1462 57.7322 39.9742 58.5971 39.9742 59.4706C39.9742 60.344 40.1462 61.2089 40.4805 62.0159C40.8148 62.8229 41.3047 63.5561 41.9223 64.1737C42.5399 64.7913 43.2732 65.2813 44.0801 65.6155C44.8871 65.9498 45.752 66.1218 46.6255 66.1218C50.3013 66.1218 53.5443 63.2271 53.5443 59.5522L53.6086 29.6113H59.7524C60.0344 32.2797 61.2451 34.7641 63.1729 36.6305C65.1007 38.4968 67.6229 39.6265 70.299 39.8221V46.9594"
              fill="#2D224C"
            />
          </svg>