<svg width="191" height="59" viewBox="0 0 191 59" fill="none" xmlns="http://www.w3.org/2000/svg">
<g clip-path="url(#clip0_333_671)">
<path d="M2.22437 1.98193V12.8582H13.4144V57.4456H24.8846V12.7417H31.6498C31.6498 12.7417 33.3247 8.04475 36.163 5.62269V1.98193H2.22437Z" fill="#2D224C"/>
<path d="M72.3583 17.4079C69.6373 -0.306852 53.4986 0.760081 53.4986 0.760081C53.4986 0.760081 37.3584 -0.312984 34.6374 17.4079C34.6374 17.4079 25.4756 58.5125 53.4986 58.3101C81.5202 58.5125 72.3583 17.4079 72.3583 17.4079ZM61.852 35.5335C61.8661 38.3225 61.1855 41.0705 59.8725 43.5263C58.4321 46.1829 56.8272 47.2499 53.7453 47.2499C53.6616 47.2499 53.5793 47.2499 53.4971 47.2499C53.4149 47.2499 53.3311 47.2499 53.2474 47.2499C50.1686 47.2499 48.5606 46.1768 47.1202 43.5263C45.8072 41.0705 45.1266 38.3225 45.1407 35.5335V22.4007C45.123 19.9241 45.8636 17.502 47.2618 15.4641C48.6672 13.4514 50.6741 11.9384 53.2489 11.9384C53.3327 11.9384 53.4149 11.9384 53.4986 11.9384C53.5824 11.9384 53.6631 11.9384 53.7468 11.9384C56.3216 11.9384 58.3285 13.459 59.7339 15.4641C61.1324 17.5024 61.8731 19.9251 61.855 22.4023L61.852 35.5335Z" fill="#2D224C"/>
<path d="M115.774 29.5904C114.533 1.98193 102.222 2.72541 97.2735 1.98193H78.697V57.4456H96.5837C96.5837 57.4456 117.309 58.1201 115.774 29.5904ZM103.314 38.69C101.602 48.2019 90.0287 46.18 90.0287 46.18V12.8015H95.288C96.4681 12.797 97.632 13.0783 98.6814 13.6218C99.7309 14.1653 100.635 14.9549 101.318 15.9241C104.814 20.9338 104.325 30.2265 103.314 38.69Z" fill="#2D224C"/>
<path d="M143.614 1.98193H127.288L115.626 57.4456H127.367L128.963 47.4094H141.342L143.232 57.4472H155.2L143.614 1.98193ZM130.824 36.7584L135.412 12.8015L139.57 36.7584H130.824Z" fill="#2D224C"/>
<path d="M149.166 1.98193L163.249 37.2045V57.4456H174.673V37.0558L188.58 1.98193H176.858L169.33 23.828L161.92 1.98193H149.166Z" fill="#2D224C"/>
</g>
<defs>
<clipPath id="clip0_333_671">
<rect width="189.571" height="58.5587" fill="white" transform="translate(0.602783 0.288086)"/>
</clipPath>
</defs>
</svg>
