<svg width="103" height="103" viewBox="0 0 103 103" fill="none" xmlns="http://www.w3.org/2000/svg">
            <path
              d="M51.9379 34.1885C30.4127 34.1885 30.0359 36.103 30.0359 51.0535C30.0359 66.0041 30.4106 67.9186 51.9379 67.9186C73.4652 67.9186 73.8379 66.0041 73.8379 51.0535C73.8379 36.103 73.4611 34.1885 51.9379 34.1885ZM59.5816 51.1607C59.5706 51.3711 59.5031 51.5747 59.3861 51.7499C59.2691 51.9251 59.107 52.0655 58.9169 52.1563L49.034 56.9339C48.8512 57.0227 48.6488 57.0634 48.4458 57.0523C48.2429 57.0412 48.0461 56.9787 47.8741 56.8705C47.7021 56.7623 47.5604 56.6121 47.4625 56.434C47.3646 56.2559 47.3137 56.0558 47.3145 55.8526V46.519C47.3154 46.3186 47.3665 46.1217 47.4633 45.9462C47.5601 45.7708 47.6994 45.6225 47.8684 45.5148C48.0374 45.4072 48.2307 45.3438 48.4306 45.3303C48.6305 45.3168 48.8306 45.3537 49.0125 45.4376L58.8955 49.9967C59.0683 50.0756 59.2192 50.1955 59.3351 50.3461C59.451 50.4967 59.5282 50.6733 59.5602 50.8606C59.5975 50.9562 59.6043 51.0611 59.5796 51.1607H59.5816Z"
              fill="#2D224C"
            />
            <path
              d="M72.2244 15.5835H30.2216C22.2429 15.5835 15.752 22.0734 15.752 30.0521V72.0549C15.752 80.0336 22.2429 86.5235 30.2216 86.5235H72.2244C80.2031 86.5235 86.694 80.0336 86.694 72.0549V30.0521C86.694 22.0734 80.2031 15.5835 72.2244 15.5835ZM82.7333 72.0549C82.7309 74.8412 81.6229 77.5127 79.6526 79.4828C77.6823 81.4529 75.0107 82.5606 72.2244 82.5628H30.2216C27.4353 82.5606 24.7637 81.4529 22.7934 79.4828C20.8231 77.5127 19.7151 74.8412 19.7127 72.0549V30.0521C19.7151 27.2658 20.8231 24.5944 22.7934 22.6242C24.7637 20.6541 27.4353 19.5464 30.2216 19.5442H72.2244C75.0107 19.5464 77.6823 20.6541 79.6526 22.6242C81.6229 24.5944 82.7309 27.2658 82.7333 30.0521V72.0549Z"
              fill="#2D224C"
            />
            <path
              d="M72.2244 87.7672H30.2215C21.5577 87.7672 14.5093 80.7218 14.5093 72.0549V30.0521C14.5093 21.3883 21.5547 14.3398 30.2215 14.3398H72.2244C80.8882 14.3398 87.9366 21.3852 87.9366 30.0521V72.0549C87.9366 80.7187 80.8882 87.7672 72.2244 87.7672ZM30.2215 16.8262C26.715 16.8299 23.3531 18.2246 20.8736 20.7041C18.394 23.1837 16.9994 26.5455 16.9956 30.0521V72.0549C16.9994 75.5615 18.394 78.9234 20.8736 81.4029C23.3531 83.8825 26.715 85.2771 30.2215 85.2809H72.2244C75.731 85.2771 79.0928 83.8825 81.5724 81.4029C84.0519 78.9234 85.4466 75.5615 85.4503 72.0549V30.0521C85.4466 26.5455 84.0519 23.1837 81.5724 20.7041C79.0928 18.2246 75.731 16.8299 72.2244 16.8262H30.2215ZM72.2244 83.8085H30.2215C27.1056 83.805 24.1183 82.5655 21.9151 80.362C19.712 78.1585 18.473 75.1709 18.47 72.0549V30.0521C18.4735 26.9365 19.7128 23.9495 21.9158 21.7464C24.1189 19.5433 27.1059 18.3041 30.2215 18.3006H72.2244C75.34 18.3041 78.327 19.5433 80.5301 21.7464C82.7332 23.9495 83.9724 26.9365 83.9759 30.0521V72.0549C83.9724 75.1706 82.7332 78.1576 80.5301 80.3606C78.327 82.5637 75.34 83.803 72.2244 83.8065V83.8085ZM30.2215 20.7869C27.7651 20.7896 25.41 21.7666 23.673 23.5036C21.9361 25.2406 20.959 27.5957 20.9563 30.0521V72.0549C20.959 74.5114 21.9361 76.8665 23.673 78.6035C25.41 80.3404 27.7651 81.3175 30.2215 81.3202H72.2244C74.6808 81.3175 77.0359 80.3404 78.7729 78.6035C80.5099 76.8665 81.4869 74.5114 81.4896 72.0549V30.0521C81.4869 27.5957 80.5099 25.2406 78.7729 23.5036C77.0359 21.7666 74.6808 20.7896 72.2244 20.7869H30.2215Z"
              fill="#2D224C"
            />
          </svg>