<svg width="16" height="16" viewBox="0 0 16 16" fill="none" xmlns="http://www.w3.org/2000/svg">
<rect width="16" height="16" fill="white"/>
<path fill-rule="evenodd" clip-rule="evenodd" d="M2.62583 1.63025V7.03853C2.62583 9.73122 4.09576 12.1824 6.46206 13.4356L7.99995 14.2503L9.53789 13.4356C11.9042 12.1824 13.3742 9.73122 13.3742 7.03853V1.63025H2.62583ZM8.00005 14.9139C7.94056 14.9139 7.88108 14.8996 7.82687 14.8708L6.17075 13.9935C3.59812 12.631 2 9.96592 2 7.03853V1H14V7.03853C14 9.96592 12.4018 12.631 9.82925 13.9935L8.17278 14.871C8.11872 14.8996 8.05944 14.9139 8.00005 14.9139Z" fill="#2D224C"/>
<path fill-rule="evenodd" clip-rule="evenodd" d="M4.46021 9.29399L5.72395 9.77359L6.88609 6.64109L5.62234 6.1615L4.46021 9.29399Z" fill="#2D224C"/>
<path fill-rule="evenodd" clip-rule="evenodd" d="M11.5376 9.44781L9.52076 3.82385L8.63262 4.14961L8.91071 4.92501H6.88623V9.77361H8.91076V4.92516L10.6496 9.77361L11.5376 9.44781Z" fill="#2D224C"/>
</svg>
