<?xml version="1.0" encoding="utf-8"?>
<svg viewBox="0 0 390 438" fill="none" xmlns="http://www.w3.org/2000/svg">
  <path d="M-26.6224 63.5711C500.936 -93.0987 1050.94 76.3268 1260 180.623V465L-2121.15 435.737C-2123.3 398.22 -2126.31 287.921 -2121.15 146.858C-1952.25 230.145 -686.07 259.408 -26.6224 63.5711Z" fill="white"/>
  <path d="M 89.974 223.478 C 617.532 66.808 1167.536 236.233 1376.596 340.529 L 1376.596 624.906 L -2004.554 595.643 C -2006.704 558.126 -2009.714 447.827 -2004.554 306.764 C -1835.654 390.051 -569.474 419.314 89.974 223.478 Z" fill="white"/>
  <path d="M 13.378 498.572 C 540.936 341.902 1090.94 511.327 1300 615.623 L 1300 900 L -2081.15 870.737 C -2083.3 833.22 -2086.31 722.921 -2081.15 581.858 C -1912.25 665.145 -646.07 694.408 13.378 498.572 Z" fill="white"/>
</svg>